<?xml version="1.0" encoding="UTF-8"?>
<!DOCTYPE svg PUBLIC "-//W3C//DTD SVG 1.1//EN" "http://www.w3.org/Graphics/SVG/1.1/DTD/svg11.dtd">
<svg xmlns="http://www.w3.org/2000/svg" version="1.1" width="200px" height="200px" style="shape-rendering:geometricPrecision; text-rendering:geometricPrecision; image-rendering:optimizeQuality; fill-rule:evenodd; clip-rule:evenodd" xmlns:xlink="http://www.w3.org/1999/xlink">
<g><path style="opacity:1" fill="#3a01ee" d="M 139.5,-0.5 C 154.833,-0.5 170.167,-0.5 185.5,-0.5C 186.984,1.07365 188.651,2.40698 190.5,3.5C 190.733,5.06181 191.4,6.39514 192.5,7.5C 190.219,9.59781 187.719,11.5978 185,13.5C 183.951,11.8934 182.451,11.2267 180.5,11.5C 180.657,10.1266 180.49,8.79323 180,7.5C 176.397,8.02689 172.564,8.36023 168.5,8.5C 168.5,7.5 168.5,6.5 168.5,5.5C 160.658,5.09312 152.658,4.25979 144.5,3C 142.416,2.30276 140.749,1.1361 139.5,-0.5 Z"/></g>
<g><path style="opacity:0.51" fill="#1b0962" d="M 190.5,3.5 C 193.687,5.34385 195.687,8.01051 196.5,11.5C 195.527,9.86076 194.194,8.52743 192.5,7.5C 191.4,6.39514 190.733,5.06181 190.5,3.5 Z"/></g>
<g><path style="opacity:1" fill="#813587" d="M 77.5,-0.5 C 83.8333,-0.5 90.1667,-0.5 96.5,-0.5C 93.7421,2.05273 90.4088,3.88607 86.5,5C 84.393,6.26351 83.393,8.09685 83.5,10.5C 82.1667,10.5 80.8333,10.5 79.5,10.5C 79.5479,13.2919 78.2146,15.1253 75.5,16C 77.7078,16.1909 79.7078,16.6909 81.5,17.5C 75.8333,17.5 70.1667,17.5 64.5,17.5C 63.6971,16.5768 63.5304,15.5768 64,14.5C 68.0536,8.9802 72.5536,3.9802 77.5,-0.5 Z"/></g>
<g><path style="opacity:1" fill="#a64c7a" d="M 60.5,-0.5 C 65.1667,-0.5 69.8333,-0.5 74.5,-0.5C 72.4024,0.934959 70.0691,2.10163 67.5,3C 66.2567,4.15445 65.2567,5.48779 64.5,7C 62.8659,7.49351 61.1992,7.66018 59.5,7.5C 59.3601,9.12377 60.0267,10.2904 61.5,11C 58.8554,12.2865 57.8554,14.4532 58.5,17.5C 55.5,17.5 52.5,17.5 49.5,17.5C 50.2922,10.7645 53.6256,5.76448 59.5,2.5C 60.1272,1.58317 60.4606,0.583168 60.5,-0.5 Z"/></g>
<g><path style="opacity:1" fill="#eb987c" d="M 12.5,-0.5 C 17.8333,-0.5 23.1667,-0.5 28.5,-0.5C 29.3468,1.02912 30.0135,2.69579 30.5,4.5C 30.4805,5.72612 30.1471,6.72612 29.5,7.5C 26.6004,8.47012 23.4337,8.47012 20,7.5C 16.6592,10.2846 12.8259,12.1179 8.5,13C 8.83333,13.3333 9.16667,13.6667 9.5,14C 6.99136,17.2095 4.15802,20.0429 1,22.5C 0.178577,19.4459 0.345244,16.4459 1.5,13.5C 2.59042,12.273 3.92375,11.4396 5.5,11C 4.61983,9.64387 4.28649,8.14387 4.5,6.5C 6.80023,3.82409 9.4669,1.49075 12.5,-0.5 Z"/></g>
<g><path style="opacity:1" fill="#6a2a8e" d="M 96.5,-0.5 C 98.5,-0.5 100.5,-0.5 102.5,-0.5C 101.432,0.434475 100.099,0.767809 98.5,0.5C 98.2436,2.7925 98.5769,4.95917 99.5,7C 97.5595,7.30359 95.8928,8.13692 94.5,9.5C 93.914,9.29069 93.414,8.95735 93,8.5C 92.3333,9.83333 92.3333,11.1667 93,12.5C 93.6689,9.97217 94.5022,9.97217 95.5,12.5C 93.4457,14.1938 91.1123,15.3605 88.5,16C 92.4862,16.4988 96.4862,16.6655 100.5,16.5C 104.042,16.1872 107.375,16.5206 110.5,17.5C 101.5,17.5 92.5,17.5 83.5,17.5C 82.8333,17.5 82.1667,17.5 81.5,17.5C 79.7078,16.6909 77.7078,16.1909 75.5,16C 78.2146,15.1253 79.5479,13.2919 79.5,10.5C 80.8333,10.5 82.1667,10.5 83.5,10.5C 83.393,8.09685 84.393,6.26351 86.5,5C 90.4088,3.88607 93.7421,2.05273 96.5,-0.5 Z"/></g>
<g><path style="opacity:1" fill="#cf736d" d="M 28.5,-0.5 C 35.1667,-0.5 41.8333,-0.5 48.5,-0.5C 47.8051,1.97813 46.3051,3.97813 44,5.5C 43.5172,6.44802 43.3505,7.44802 43.5,8.5C 40.8915,8.60562 38.8915,9.77229 37.5,12C 37.9574,12.414 38.2907,12.914 38.5,13.5C 37.2713,14.2811 35.938,14.7811 34.5,15C 35.6843,16.1455 35.6843,17.3121 34.5,18.5C 32.0846,19.3052 29.7513,20.3052 27.5,21.5C 24.4407,17.5206 25.4407,15.0206 30.5,14C 30.1667,13.6667 29.8333,13.3333 29.5,13C 32.1078,11.063 32.1078,9.22964 29.5,7.5C 30.1471,6.72612 30.4805,5.72612 30.5,4.5C 30.0135,2.69579 29.3468,1.02912 28.5,-0.5 Z"/></g>
<g><path style="opacity:1" fill="#5f2099" d="M 102.5,-0.5 C 107.833,-0.5 113.167,-0.5 118.5,-0.5C 116.052,0.473067 113.385,0.8064 110.5,0.5C 110.5,1.5 110.5,2.5 110.5,3.5C 107.612,3.21958 106.112,4.55291 106,7.5C 105.25,8.12576 104.416,8.62576 103.5,9C 103.833,9.33333 104.167,9.66667 104.5,10C 102.998,10.5831 101.665,11.4164 100.5,12.5C 101.363,13.7264 101.363,15.0597 100.5,16.5C 96.4862,16.6655 92.4862,16.4988 88.5,16C 91.1123,15.3605 93.4457,14.1938 95.5,12.5C 94.5022,9.97217 93.6689,9.97217 93,12.5C 92.3333,11.1667 92.3333,9.83333 93,8.5C 93.414,8.95735 93.914,9.29069 94.5,9.5C 95.8928,8.13692 97.5595,7.30359 99.5,7C 98.5769,4.95917 98.2436,2.7925 98.5,0.5C 100.099,0.767809 101.432,0.434475 102.5,-0.5 Z"/></g>
<g><path style="opacity:1" fill="#3004c7" d="M 133.5,-0.5 C 134.5,-0.5 135.5,-0.5 136.5,-0.5C 138.712,8.44224 144.378,12.1089 153.5,10.5C 154.5,11.8333 155.5,13.1667 156.5,14.5C 157.696,14.1543 157.696,13.6543 156.5,13C 157.167,12.8333 157.833,12.6667 158.5,12.5C 160.167,13.5 161.833,14.5 163.5,15.5C 166.37,12.6195 169.703,11.6195 173.5,12.5C 173.833,13.1667 174.167,13.8333 174.5,14.5C 173.13,16.8807 171.797,19.214 170.5,21.5C 167.341,20.1154 164.008,19.1154 160.5,18.5C 160.158,17.6618 159.492,17.3284 158.5,17.5C 157.791,16.596 156.791,16.2627 155.5,16.5C 149.225,15.9222 142.892,14.9222 136.5,13.5C 131.897,9.48026 130.897,4.81359 133.5,-0.5 Z"/></g>
<g><path style="opacity:1" fill="#b85d75" d="M 48.5,-0.5 C 52.5,-0.5 56.5,-0.5 60.5,-0.5C 60.4606,0.583168 60.1272,1.58317 59.5,2.5C 53.6256,5.76448 50.2922,10.7645 49.5,17.5C 45.2984,17.1832 41.2984,17.5166 37.5,18.5C 36.5,18.5 35.5,18.5 34.5,18.5C 35.6843,17.3121 35.6843,16.1455 34.5,15C 35.938,14.7811 37.2713,14.2811 38.5,13.5C 38.2907,12.914 37.9574,12.414 37.5,12C 38.8915,9.77229 40.8915,8.60562 43.5,8.5C 43.3505,7.44802 43.5172,6.44802 44,5.5C 46.3051,3.97813 47.8051,1.97813 48.5,-0.5 Z"/></g>
<g><path style="opacity:1" fill="#4a17a0" d="M 118.5,-0.5 C 121.5,-0.5 124.5,-0.5 127.5,-0.5C 126.713,1.10422 125.38,1.77089 123.5,1.5C 123.659,6.11125 124.325,10.6113 125.5,15C 135.482,15.9155 145.482,16.4155 155.5,16.5C 156.791,16.2627 157.791,16.596 158.5,17.5C 142.5,17.5 126.5,17.5 110.5,17.5C 107.375,16.5206 104.042,16.1872 100.5,16.5C 101.363,15.0597 101.363,13.7264 100.5,12.5C 101.665,11.4164 102.998,10.5831 104.5,10C 104.167,9.66667 103.833,9.33333 103.5,9C 104.416,8.62576 105.25,8.12576 106,7.5C 106.112,4.55291 107.612,3.21958 110.5,3.5C 110.5,2.5 110.5,1.5 110.5,0.5C 113.385,0.8064 116.052,0.473067 118.5,-0.5 Z"/></g>
<g><path style="opacity:1" fill="#3a0bb4" d="M 127.5,-0.5 C 129.5,-0.5 131.5,-0.5 133.5,-0.5C 130.897,4.81359 131.897,9.48026 136.5,13.5C 142.892,14.9222 149.225,15.9222 155.5,16.5C 145.482,16.4155 135.482,15.9155 125.5,15C 124.325,10.6113 123.659,6.11125 123.5,1.5C 125.38,1.77089 126.713,1.10422 127.5,-0.5 Z"/></g>
<g><path style="opacity:1" fill="#914081" d="M 74.5,-0.5 C 75.5,-0.5 76.5,-0.5 77.5,-0.5C 72.5536,3.9802 68.0536,8.9802 64,14.5C 63.5304,15.5768 63.6971,16.5768 64.5,17.5C 62.5,17.5 60.5,17.5 58.5,17.5C 57.8554,14.4532 58.8554,12.2865 61.5,11C 60.0267,10.2904 59.3601,9.12377 59.5,7.5C 61.1992,7.66018 62.8659,7.49351 64.5,7C 65.2567,5.48779 66.2567,4.15445 67.5,3C 70.0691,2.10163 72.4024,0.934959 74.5,-0.5 Z"/></g>
<g><path style="opacity:1" fill="#1e01d8" d="M 136.5,-0.5 C 137.5,-0.5 138.5,-0.5 139.5,-0.5C 140.749,1.1361 142.416,2.30276 144.5,3C 152.658,4.25979 160.658,5.09312 168.5,5.5C 168.5,6.5 168.5,7.5 168.5,8.5C 172.564,8.36023 176.397,8.02689 180,7.5C 180.49,8.79323 180.657,10.1266 180.5,11.5C 182.451,11.2267 183.951,11.8934 185,13.5C 187.719,11.5978 190.219,9.59781 192.5,7.5C 194.194,8.52743 195.527,9.86076 196.5,11.5C 196.5,11.8333 196.5,12.1667 196.5,12.5C 197.218,14.1368 197.384,15.8034 197,17.5C 196.667,16.8333 196.333,16.1667 196,15.5C 195.667,16.8333 195.333,18.1667 195,19.5C 194.667,18.8333 194.333,18.1667 194,17.5C 193.964,21.3547 192.131,23.8547 188.5,25C 187.228,26.3068 186.228,27.8068 185.5,29.5C 183.484,30.7059 181.484,30.7059 179.5,29.5C 179.709,28.914 180.043,28.414 180.5,28C 178.846,27.3923 177.179,26.8923 175.5,26.5C 173.64,25.0613 171.973,23.3947 170.5,21.5C 171.797,19.214 173.13,16.8807 174.5,14.5C 174.167,13.8333 173.833,13.1667 173.5,12.5C 169.703,11.6195 166.37,12.6195 163.5,15.5C 161.833,14.5 160.167,13.5 158.5,12.5C 157.833,12.6667 157.167,12.8333 156.5,13C 157.696,13.6543 157.696,14.1543 156.5,14.5C 155.5,13.1667 154.5,11.8333 153.5,10.5C 144.378,12.1089 138.712,8.44224 136.5,-0.5 Z"/></g>
<g><path style="opacity:1" fill="#2b083c" d="M 83.5,17.5 C 92.5,17.5 101.5,17.5 110.5,17.5C 126.5,17.5 142.5,17.5 158.5,17.5C 159.492,17.3284 160.158,17.6618 160.5,18.5C 158.43,18.4486 156.597,19.1153 155,20.5C 153.238,20.0556 153.405,19.5556 155.5,19C 152.833,18.3333 150.167,18.3333 147.5,19C 150.382,20.5196 153.382,21.8529 156.5,23C 155.402,23.7697 155.402,24.603 156.5,25.5C 154.236,24.7814 151.903,24.448 149.5,24.5C 140.682,23.5067 131.682,23.1734 122.5,23.5C 114.875,21.8524 106.875,20.8524 98.5,20.5C 102.459,19.6735 106.459,19.1735 110.5,19C 101.324,18.8297 92.324,18.3297 83.5,17.5 Z"/></g>
<g><path style="opacity:1" fill="#3b0e39" d="M 37.5,18.5 C 41.2984,17.5166 45.2984,17.1832 49.5,17.5C 52.5,17.5 55.5,17.5 58.5,17.5C 60.5,17.5 62.5,17.5 64.5,17.5C 70.1667,17.5 75.8333,17.5 81.5,17.5C 82.1667,17.5 82.8333,17.5 83.5,17.5C 92.324,18.3297 101.324,18.8297 110.5,19C 106.459,19.1735 102.459,19.6735 98.5,20.5C 106.875,20.8524 114.875,21.8524 122.5,23.5C 111.833,23.5 101.167,23.5 90.5,23.5C 81.5,23.5 72.5,23.5 63.5,23.5C 61.8333,23.5 60.1667,23.5 58.5,23.5C 54.4517,23.3946 50.4517,23.7279 46.5,24.5C 44.5,24.5 42.5,24.5 40.5,24.5C 42.4099,23.316 42.7432,21.816 41.5,20C 42.5,19.6667 43.5,19.3333 44.5,19C 42.1902,18.5034 39.8568,18.3367 37.5,18.5 Z"/></g>
<g><path style="opacity:1" fill="#0101b2" d="M 196.5,12.5 C 197.906,12.9731 198.573,13.9731 198.5,15.5C 198.5,19.5 198.5,23.5 198.5,27.5C 195.643,28.333 192.977,29.6664 190.5,31.5C 189.129,34.8047 186.963,37.4714 184,39.5C 183.329,38.7476 182.496,38.4142 181.5,38.5C 181.167,38.5 180.833,38.5 180.5,38.5C 179.918,34.0075 178.251,30.0075 175.5,26.5C 177.179,26.8923 178.846,27.3923 180.5,28C 180.043,28.414 179.709,28.914 179.5,29.5C 181.484,30.7059 183.484,30.7059 185.5,29.5C 186.228,27.8068 187.228,26.3068 188.5,25C 192.131,23.8547 193.964,21.3547 194,17.5C 194.333,18.1667 194.667,18.8333 195,19.5C 195.333,18.1667 195.667,16.8333 196,15.5C 196.333,16.1667 196.667,16.8333 197,17.5C 197.384,15.8034 197.218,14.1368 196.5,12.5 Z"/></g>
<g><path style="opacity:1" fill="#69279c" d="M 63.5,23.5 C 72.5,23.5 81.5,23.5 90.5,23.5C 88.3926,24.4682 86.0593,24.8016 83.5,24.5C 80.1501,24.335 76.8168,24.5017 73.5,25C 70.0523,26.4697 66.8857,28.303 64,30.5C 63.6667,30.1667 63.3333,29.8333 63,29.5C 58.6743,33.6569 54.1743,37.6569 49.5,41.5C 48.2943,43.7938 47.2943,46.1272 46.5,48.5C 44.1374,52.3478 42.1374,56.3478 40.5,60.5C 40.5,59.1667 40.5,57.8333 40.5,56.5C 41.8822,51.8515 43.3822,47.1849 45,42.5C 47.1667,39.5 49.3333,36.5 51.5,33.5C 52.325,32.6143 53.325,32.281 54.5,32.5C 54.3433,31.1266 54.51,29.7932 55,28.5C 57.5023,26.1417 60.3356,24.4751 63.5,23.5 Z"/></g>
<g><path style="opacity:1" fill="#cc7c65" d="M 4.5,6.5 C 4.28649,8.14387 4.61983,9.64387 5.5,11C 3.92375,11.4396 2.59042,12.273 1.5,13.5C 0.345244,16.4459 0.178577,19.4459 1,22.5C 4.15802,20.0429 6.99136,17.2095 9.5,14C 9.16667,13.6667 8.83333,13.3333 8.5,13C 12.8259,12.1179 16.6592,10.2846 20,7.5C 23.4337,8.47012 26.6004,8.47012 29.5,7.5C 32.1078,9.22964 32.1078,11.063 29.5,13C 29.8333,13.3333 30.1667,13.6667 30.5,14C 25.4407,15.0206 24.4407,17.5206 27.5,21.5C 24.9473,23.5968 22.614,25.9302 20.5,28.5C 19.7784,28.0825 19.2784,27.4158 19,26.5C 18.2496,27.1258 17.4162,27.6258 16.5,28C 17.3802,29.3561 17.7135,30.8561 17.5,32.5C 14.8806,32.7683 12.3806,32.435 10,31.5C 8.30224,33.2661 6.96891,35.2661 6,37.5C 3.95917,36.5769 1.7925,36.2436 -0.5,36.5C -0.5,28.5 -0.5,20.5 -0.5,12.5C 1.51305,10.8317 3.17972,8.8317 4.5,6.5 Z"/></g>
<g><path style="opacity:1" fill="#1c0a3d" d="M 160.5,18.5 C 164.008,19.1154 167.341,20.1154 170.5,21.5C 171.973,23.3947 173.64,25.0613 175.5,26.5C 178.251,30.0075 179.918,34.0075 180.5,38.5C 181.051,41.8067 181.384,45.1401 181.5,48.5C 181.5,78.8333 181.5,109.167 181.5,139.5C 181.5,142.167 181.5,144.833 181.5,147.5C 181.5,149.167 181.5,150.833 181.5,152.5C 181.66,154.199 181.494,155.866 181,157.5C 180.667,155.167 180.333,152.833 180,150.5C 179.722,151.416 179.222,152.082 178.5,152.5C 178.748,117.654 178.081,82.9873 176.5,48.5C 176.672,47.5084 176.338,46.8417 175.5,46.5C 174.789,39.0628 171.123,33.7295 164.5,30.5C 163.341,28.7497 161.674,27.7497 159.5,27.5C 159.027,26.0937 158.027,25.427 156.5,25.5C 155.402,24.603 155.402,23.7697 156.5,23C 153.382,21.8529 150.382,20.5196 147.5,19C 150.167,18.3333 152.833,18.3333 155.5,19C 153.405,19.5556 153.238,20.0556 155,20.5C 156.597,19.1153 158.43,18.4486 160.5,18.5 Z"/></g>
<g><path style="opacity:1" fill="#5a1cf5" d="M 159.5,27.5 C 161.674,27.7497 163.341,28.7497 164.5,30.5C 162.337,29.2799 160.17,29.2799 158,30.5C 156.238,30.0556 156.405,29.5556 158.5,29C 158,28.8333 157.5,28.6667 157,28.5C 152.349,30.7593 147.515,31.0926 142.5,29.5C 138.622,30.1015 138.622,30.9348 142.5,32C 140.715,33.1628 138.715,33.8295 136.5,34C 137.056,34.3826 137.389,34.8826 137.5,35.5C 135.876,35.3601 134.71,36.0267 134,37.5C 129.735,34.5953 125.402,34.9286 121,38.5C 119.933,37.8095 118.766,37.3095 117.5,37C 118.5,36.6667 119.5,36.3333 120.5,36C 116.056,34.462 111.723,32.6287 107.5,30.5C 114.167,29.8333 120.833,29.1667 127.5,28.5C 122.433,27.9083 117.099,27.4083 111.5,27C 127.571,25.068 143.571,25.2347 159.5,27.5 Z"/></g>
<g><path style="opacity:1" fill="#6926ce" d="M 90.5,23.5 C 101.167,23.5 111.833,23.5 122.5,23.5C 131.682,23.1734 140.682,23.5067 149.5,24.5C 130.128,24.4622 110.795,25.2955 91.5,27C 95.894,27.3028 100.227,27.9695 104.5,29C 88.5138,29.8315 88.5138,30.3315 104.5,30.5C 104.5,32.8333 104.5,35.1667 104.5,37.5C 104.5,37.8333 104.5,38.1667 104.5,38.5C 100.574,37.305 96.5743,36.805 92.5,37C 87.5668,41.5674 83.4002,46.0674 80,50.5C 78.2856,49.9238 77.1189,48.7571 76.5,47C 74.8659,46.5065 73.1992,46.3398 71.5,46.5C 70.5942,43.5641 69.9275,40.5641 69.5,37.5C 69.4606,36.4168 69.1272,35.4168 68.5,34.5C 68.9377,33.4937 69.6043,33.4937 70.5,34.5C 72.2817,31.3769 74.9484,29.2102 78.5,28C 80.1341,27.5065 81.8008,27.3398 83.5,27.5C 83.5,26.5 83.5,25.5 83.5,24.5C 86.0593,24.8016 88.3926,24.4682 90.5,23.5 Z"/></g>
<g><path style="opacity:1" fill="#3708ec" d="M 164.5,30.5 C 171.123,33.7295 174.789,39.0628 175.5,46.5C 175.375,49.0708 175.042,51.7375 174.5,54.5C 173.571,53.3112 173.238,51.9778 173.5,50.5C 164.083,49.9522 156.083,46.4522 149.5,40C 148.255,39.2086 146.922,38.7086 145.5,38.5C 142.924,37.5122 140.257,36.5122 137.5,35.5C 137.389,34.8826 137.056,34.3826 136.5,34C 138.715,33.8295 140.715,33.1628 142.5,32C 138.622,30.9348 138.622,30.1015 142.5,29.5C 147.515,31.0926 152.349,30.7593 157,28.5C 157.5,28.6667 158,28.8333 158.5,29C 156.405,29.5556 156.238,30.0556 158,30.5C 160.17,29.2799 162.337,29.2799 164.5,30.5 Z"/></g>
<g><path style="opacity:1" fill="#461c3e" d="M 34.5,18.5 C 35.5,18.5 36.5,18.5 37.5,18.5C 39.8568,18.3367 42.1902,18.5034 44.5,19C 43.5,19.3333 42.5,19.6667 41.5,20C 42.7432,21.816 42.4099,23.316 40.5,24.5C 39.6618,24.8417 39.3284,25.5084 39.5,26.5C 36.1884,26.149 33.855,27.4823 32.5,30.5C 28.4149,33.0985 25.5815,36.7652 24,41.5C 23.1065,45.8632 22.1065,50.1965 21,54.5C 19.1967,50.4884 18.1967,50.8218 18,55.5C 16.9569,70.6381 16.1235,85.6381 15.5,100.5C 15.5,96.5 15.5,92.5 15.5,88.5C 15.5,84.1667 15.5,79.8333 15.5,75.5C 15.5,66.5 15.5,57.5 15.5,48.5C 15.6046,41.4118 17.2712,34.7451 20.5,28.5C 22.614,25.9302 24.9473,23.5968 27.5,21.5C 29.7513,20.3052 32.0846,19.3052 34.5,18.5 Z"/></g>
<g><path style="opacity:1" fill="#010083" d="M 198.5,15.5 C 198.833,15.5 199.167,15.5 199.5,15.5C 199.5,20.5 199.5,25.5 199.5,30.5C 198.517,34.2984 198.183,38.2984 198.5,42.5C 196.836,41.0512 196.002,39.0512 196,36.5C 195.667,38.5 195.333,40.5 195,42.5C 194,38.5 193,38.5 192,42.5C 187.857,39.8668 185.191,41.2001 184,46.5C 183.059,43.846 182.226,41.1794 181.5,38.5C 182.496,38.4142 183.329,38.7476 184,39.5C 186.963,37.4714 189.129,34.8047 190.5,31.5C 192.977,29.6664 195.643,28.333 198.5,27.5C 198.5,23.5 198.5,19.5 198.5,15.5 Z"/></g>
<g><path style="opacity:1" fill="#591be0" d="M 149.5,24.5 C 151.903,24.448 154.236,24.7814 156.5,25.5C 158.027,25.427 159.027,26.0937 159.5,27.5C 143.571,25.2347 127.571,25.068 111.5,27C 117.099,27.4083 122.433,27.9083 127.5,28.5C 120.833,29.1667 114.167,29.8333 107.5,30.5C 111.723,32.6287 116.056,34.462 120.5,36C 119.5,36.3333 118.5,36.6667 117.5,37C 118.766,37.3095 119.933,37.8095 121,38.5C 125.402,34.9286 129.735,34.5953 134,37.5C 134.71,36.0267 135.876,35.3601 137.5,35.5C 140.257,36.5122 142.924,37.5122 145.5,38.5C 142.059,38.3011 138.726,38.8011 135.5,40C 133.89,42.2444 131.89,44.0777 129.5,45.5C 128.833,45.1667 128.167,44.8333 127.5,44.5C 122.255,45.9876 116.921,46.4876 111.5,46C 109.665,45.0723 109.332,43.9056 110.5,42.5C 108.703,40.5509 106.703,38.8842 104.5,37.5C 104.5,35.1667 104.5,32.8333 104.5,30.5C 88.5138,30.3315 88.5138,29.8315 104.5,29C 100.227,27.9695 95.894,27.3028 91.5,27C 110.795,25.2955 130.128,24.4622 149.5,24.5 Z"/></g>
<g><path style="opacity:1" fill="#b3655b" d="M 20.5,28.5 C 17.2712,34.7451 15.6046,41.4118 15.5,48.5C 14.8386,49.7175 14.1719,51.0508 13.5,52.5C 12.4826,49.972 11.3159,49.972 10,52.5C 9.38277,53.4491 9.54943,54.2825 10.5,55C 6.57628,55.9648 2.90961,57.4648 -0.5,59.5C -0.5,51.8333 -0.5,44.1667 -0.5,36.5C 1.7925,36.2436 3.95917,36.5769 6,37.5C 6.96891,35.2661 8.30224,33.2661 10,31.5C 12.3806,32.435 14.8806,32.7683 17.5,32.5C 17.7135,30.8561 17.3802,29.3561 16.5,28C 17.4162,27.6258 18.2496,27.1258 19,26.5C 19.2784,27.4158 19.7784,28.0825 20.5,28.5 Z"/></g>
<g><path style="opacity:1" fill="#460dc3" d="M 104.5,37.5 C 106.703,38.8842 108.703,40.5509 110.5,42.5C 109.332,43.9056 109.665,45.0723 111.5,46C 116.921,46.4876 122.255,45.9876 127.5,44.5C 128.167,44.8333 128.833,45.1667 129.5,45.5C 131.89,44.0777 133.89,42.2444 135.5,40C 138.726,38.8011 142.059,38.3011 145.5,38.5C 148.387,41.7923 151.054,45.2923 153.5,49C 156.743,49.7798 159.41,51.2798 161.5,53.5C 161.167,53.5 160.833,53.5 160.5,53.5C 158.302,52.8347 155.969,52.1681 153.5,51.5C 152.184,50.1934 151.184,48.6934 150.5,47C 149.552,46.5172 148.552,46.3505 147.5,46.5C 147.5,45.5 147.5,44.5 147.5,43.5C 144.552,43.7771 141.719,43.4438 139,42.5C 138.062,45.7232 135.895,47.0565 132.5,46.5C 132.5,47.5 132.5,48.5 132.5,49.5C 128.167,49.5 123.833,49.5 119.5,49.5C 119.5,50.8333 119.5,52.1667 119.5,53.5C 119.5,53.8333 119.5,54.1667 119.5,54.5C 118.448,54.6495 117.448,54.4828 116.5,54C 117.833,52.1598 117.666,51.6598 116,52.5C 114.559,51.7402 113.059,51.0736 111.5,50.5C 109.976,47.3188 107.81,44.6521 105,42.5C 104.51,41.2068 104.343,39.8734 104.5,38.5C 104.5,38.1667 104.5,37.8333 104.5,37.5 Z"/></g>
<g><path style="opacity:1" fill="#3e08a3" d="M 160.5,53.5 C 156.318,53.6796 152.318,53.013 148.5,51.5C 148.5,50.5 148.5,49.5 148.5,48.5C 145.679,48.5387 143.012,49.2054 140.5,50.5C 139.873,51.4168 139.539,52.4168 139.5,53.5C 132.833,53.5 126.167,53.5 119.5,53.5C 119.5,52.1667 119.5,50.8333 119.5,49.5C 123.833,49.5 128.167,49.5 132.5,49.5C 132.5,48.5 132.5,47.5 132.5,46.5C 135.895,47.0565 138.062,45.7232 139,42.5C 141.719,43.4438 144.552,43.7771 147.5,43.5C 147.5,44.5 147.5,45.5 147.5,46.5C 148.552,46.3505 149.552,46.5172 150.5,47C 151.184,48.6934 152.184,50.1934 153.5,51.5C 155.969,52.1681 158.302,52.8347 160.5,53.5 Z"/></g>
<g><path style="opacity:1" fill="#030367" d="M 198.5,108.5 C 198.726,111.249 198.393,113.916 197.5,116.5C 192.234,121.495 188.067,127.161 185,133.5C 184.751,132.376 184.251,131.376 183.5,130.5C 182.833,133.642 182.166,136.642 181.5,139.5C 181.5,109.167 181.5,78.8333 181.5,48.5C 182.473,50.9479 182.806,53.6146 182.5,56.5C 183.675,56.719 184.675,56.3857 185.5,55.5C 184.438,52.8971 184.272,50.2305 185,47.5C 185.333,49.5 185.667,51.5 186,53.5C 189.107,44.0352 191.607,44.3685 193.5,54.5C 194.007,63.0005 195.007,70.6672 196.5,77.5C 196.333,79.5 196.167,81.5 196,83.5C 195.781,82.062 195.281,80.7287 194.5,79.5C 190.771,86.2041 187.104,92.8708 183.5,99.5C 182.167,109.5 182.167,119.5 183.5,129.5C 184.466,127.604 184.799,125.604 184.5,123.5C 186.973,123.264 188.64,121.931 189.5,119.5C 190.086,119.709 190.586,120.043 191,120.5C 192.474,117.244 193.64,113.911 194.5,110.5C 196.199,110.473 197.533,109.806 198.5,108.5 Z"/></g>
<g><path style="opacity:1" fill="#1601c7" d="M 145.5,38.5 C 146.922,38.7086 148.255,39.2086 149.5,40C 156.083,46.4522 164.083,49.9522 173.5,50.5C 173.238,51.9778 173.571,53.3112 174.5,54.5C 175.042,51.7375 175.375,49.0708 175.5,46.5C 176.338,46.8417 176.672,47.5084 176.5,48.5C 176.5,53.1667 176.5,57.8333 176.5,62.5C 174.692,62.5086 173.025,62.0086 171.5,61C 171.085,58.9737 170.085,57.4737 168.5,56.5C 166.167,56.5 163.833,56.5 161.5,56.5C 161.5,55.5 161.5,54.5 161.5,53.5C 159.41,51.2798 156.743,49.7798 153.5,49C 151.054,45.2923 148.387,41.7923 145.5,38.5 Z"/></g>
<g><path style="opacity:1" fill="#5318b4" d="M 104.5,38.5 C 104.343,39.8734 104.51,41.2068 105,42.5C 107.81,44.6521 109.976,47.3188 111.5,50.5C 113.059,51.0736 114.559,51.7402 116,52.5C 117.666,51.6598 117.833,52.1598 116.5,54C 117.448,54.4828 118.448,54.6495 119.5,54.5C 119.167,57.1667 118.833,59.8333 118.5,62.5C 117.962,64.1172 117.629,65.7839 117.5,67.5C 116.566,68.5676 116.232,69.901 116.5,71.5C 115.624,71.6309 114.957,71.2975 114.5,70.5C 113.379,65.0713 110.879,60.4047 107,56.5C 106.667,54.5 106.333,52.5 106,50.5C 103.858,48.3818 102.358,45.8818 101.5,43C 99.2305,42.2419 97.0639,42.4086 95,43.5C 94.0911,46.5127 93.2578,49.5127 92.5,52.5C 94.2915,52.366 95.9582,52.6993 97.5,53.5C 98.1667,53.5 98.5,53.8333 98.5,54.5C 94.8333,54.5 91.1667,54.5 87.5,54.5C 86.8734,59.1408 86.5401,63.8075 86.5,68.5C 86.5,70.5 86.5,72.5 86.5,74.5C 85.5,74.5 84.5,74.5 83.5,74.5C 82.1429,67.4424 81.1429,60.4424 80.5,53.5C 80.1667,53.5 79.8333,53.5 79.5,53.5C 78.4324,52.5655 77.099,52.2322 75.5,52.5C 77.0278,49.2543 76.1944,48.5877 73,50.5C 67.9718,50.5041 63.8051,48.6708 60.5,45C 60.7205,43.2015 61.0539,41.3682 61.5,39.5C 64.1867,38.7396 66.8534,38.0729 69.5,37.5C 69.9275,40.5641 70.5942,43.5641 71.5,46.5C 73.1992,46.3398 74.8659,46.5065 76.5,47C 77.1189,48.7571 78.2856,49.9238 80,50.5C 83.4002,46.0674 87.5668,41.5674 92.5,37C 96.5743,36.805 100.574,37.305 104.5,38.5 Z"/></g>
<g><path style="opacity:1" fill="#3f0e7e" d="M 160.5,53.5 C 160.5,53.8333 160.5,54.1667 160.5,54.5C 156.833,54.5 153.167,54.5 149.5,54.5C 149.737,55.791 149.404,56.791 148.5,57.5C 147.378,56.0527 145.878,55.0527 144,54.5C 142.701,54.9662 141.201,54.9662 139.5,54.5C 139.5,54.1667 139.5,53.8333 139.5,53.5C 139.539,52.4168 139.873,51.4168 140.5,50.5C 143.012,49.2054 145.679,48.5387 148.5,48.5C 148.5,49.5 148.5,50.5 148.5,51.5C 152.318,53.013 156.318,53.6796 160.5,53.5 Z"/></g>
<g><path style="opacity:1" fill="#6a25b0" d="M 83.5,24.5 C 83.5,25.5 83.5,26.5 83.5,27.5C 81.8008,27.3398 80.1341,27.5065 78.5,28C 74.9484,29.2102 72.2817,31.3769 70.5,34.5C 69.6043,33.4937 68.9377,33.4937 68.5,34.5C 69.1272,35.4168 69.4606,36.4168 69.5,37.5C 66.8534,38.0729 64.1867,38.7396 61.5,39.5C 61.0539,41.3682 60.7205,43.2015 60.5,45C 63.8051,48.6708 67.9718,50.5041 73,50.5C 76.1944,48.5877 77.0278,49.2543 75.5,52.5C 71.8183,52.6653 68.1516,52.4986 64.5,52C 65.5,51.6667 66.5,51.3333 67.5,51C 66.2341,50.6905 65.0674,50.1905 64,49.5C 63.6667,50.1667 63.3333,50.8333 63,51.5C 61.2739,50.4238 59.4406,50.2571 57.5,51C 54.9606,54.0368 52.2939,56.8702 49.5,59.5C 50.5767,62.4742 50.5767,65.4742 49.5,68.5C 46.4017,68.4125 46.0684,68.9125 48.5,70C 47.5,70.5 46.5,71 45.5,71.5C 44.5124,68.5755 43.8457,65.5755 43.5,62.5C 44.9206,57.6317 45.9206,52.965 46.5,48.5C 47.2943,46.1272 48.2943,43.7938 49.5,41.5C 54.1743,37.6569 58.6743,33.6569 63,29.5C 63.3333,29.8333 63.6667,30.1667 64,30.5C 66.8857,28.303 70.0523,26.4697 73.5,25C 76.8168,24.5017 80.1501,24.335 83.5,24.5 Z"/></g>
<g><path style="opacity:1" fill="#1486bd" d="M 119.5,53.5 C 126.167,53.5 132.833,53.5 139.5,53.5C 139.5,53.8333 139.5,54.1667 139.5,54.5C 139.567,55.9587 139.234,57.2921 138.5,58.5C 136.41,55.8862 134.243,55.8862 132,58.5C 128.927,57.3832 125.76,57.2165 122.5,58C 123.604,59.1313 123.271,59.9646 121.5,60.5C 120.914,60.2907 120.414,59.9574 120,59.5C 119.768,60.7375 119.268,61.7375 118.5,62.5C 118.833,59.8333 119.167,57.1667 119.5,54.5C 119.5,54.1667 119.5,53.8333 119.5,53.5 Z"/></g>
<g><path style="opacity:1" fill="#19acc8" d="M 79.5,53.5 C 79.8333,53.5 80.1667,53.5 80.5,53.5C 80.5,56.5 80.5,59.5 80.5,62.5C 79.5902,64.0188 78.7568,65.6854 78,67.5C 77.6667,64.8333 77.3333,62.1667 77,59.5C 76.6667,60.1667 76.3333,60.8333 76,61.5C 75.5,60.3333 74.6667,59.5 73.5,59C 70.0971,58.8996 66.9304,58.0663 64,56.5C 63.8171,59.3647 63.3171,62.0314 62.5,64.5C 62.5,64.1667 62.5,63.8333 62.5,63.5C 62.5,61.8333 62.5,60.1667 62.5,58.5C 62.5,57.1667 62.5,55.8333 62.5,54.5C 67.9753,53.5111 73.642,53.1778 79.5,53.5 Z"/></g>
<g><path style="opacity:1" fill="#088ac0" d="M 160.5,54.5 C 159.699,56.0418 159.366,57.7085 159.5,59.5C 158.5,62.1667 157.5,64.8333 156.5,67.5C 154.861,67.1924 153.028,67.1924 151,67.5C 150.333,62.1667 149.667,62.1667 149,67.5C 148.617,66.944 148.117,66.6107 147.5,66.5C 147.963,63.5176 148.296,60.5176 148.5,57.5C 149.404,56.791 149.737,55.791 149.5,54.5C 153.167,54.5 156.833,54.5 160.5,54.5 Z"/></g>
<g><path style="opacity:1" fill="#2d0b42" d="M 39.5,26.5 C 37.9242,27.2832 36.5908,28.4499 35.5,30C 38.0515,31.5158 37.7181,32.3491 34.5,32.5C 33.5575,38.3277 32.3909,43.9944 31,49.5C 30.7688,55.3709 30.2688,61.2043 29.5,67C 30.8526,71.5116 30.5192,75.8449 28.5,80C 28.974,83.5366 29.6406,87.0366 30.5,90.5C 29.9993,94.9175 29.9993,99.4175 30.5,104C 28.1602,109.591 27.1602,115.424 27.5,121.5C 28.0897,128.543 28.4231,135.043 28.5,141C 28.3023,143.185 27.3023,144.685 25.5,145.5C 24.928,144.027 24.0946,142.693 23,141.5C 22.502,144.482 22.3354,147.482 22.5,150.5C 21.1093,147.986 19.4426,145.486 17.5,143C 19.158,142.275 19.658,141.108 19,139.5C 16.6897,145.543 15.8563,151.876 16.5,158.5C 15.5098,152.355 15.1765,146.022 15.5,139.5C 15.5,135.167 15.5,130.833 15.5,126.5C 15.5,125.833 15.5,125.167 15.5,124.5C 16.3384,117.502 17.0051,110.335 17.5,103C 17.8333,101.5 18.1667,100 18.5,98.5C 19.1667,98.8333 19.8333,99.1667 20.5,99.5C 21.1216,112.526 21.9549,125.526 23,138.5C 24.3333,139.167 25.3333,140.167 26,141.5C 26.7161,138.582 26.2161,135.915 24.5,133.5C 26.0856,124.048 27.0856,114.548 27.5,105C 26.6716,100.572 26.0049,96.0716 25.5,91.5C 25.5698,90.2284 25.9032,89.0617 26.5,88C 23.9232,84.738 23.9232,81.4046 26.5,78C 25.8333,73 25.1667,68 24.5,63C 26.0364,57.8108 27.0364,52.4774 27.5,47C 26.8095,45.0786 26.4762,43.2453 26.5,41.5C 28.1837,39.6487 30.0171,37.982 32,36.5C 32.4955,34.5273 32.6621,32.5273 32.5,30.5C 33.855,27.4823 36.1884,26.149 39.5,26.5 Z"/></g>
<g><path style="opacity:1" fill="#450d83" d="M 116.5,71.5 C 116.567,72.9587 116.234,74.2921 115.5,75.5C 114.849,76.0906 114.182,76.7573 113.5,77.5C 111.708,74.2532 110.208,70.9198 109,67.5C 108.333,66.1667 107.667,66.1667 107,67.5C 106.316,66.2161 106.483,65.0495 107.5,64C 106.667,63.1667 105.833,62.3333 105,61.5C 103.33,57.0116 102.163,52.345 101.5,47.5C 100.167,46.1667 98.8333,46.1667 97.5,47.5C 97.7093,48.086 98.0426,48.586 98.5,49C 97.376,49.2492 96.376,49.7492 95.5,50.5C 96.6119,51.2652 97.2786,52.2652 97.5,53.5C 95.9582,52.6993 94.2915,52.366 92.5,52.5C 93.2578,49.5127 94.0911,46.5127 95,43.5C 97.0639,42.4086 99.2305,42.2419 101.5,43C 102.358,45.8818 103.858,48.3818 106,50.5C 106.333,52.5 106.667,54.5 107,56.5C 110.879,60.4047 113.379,65.0713 114.5,70.5C 114.957,71.2975 115.624,71.6309 116.5,71.5 Z"/></g>
<g><path style="opacity:1" fill="#04c7d0" d="M 80.5,62.5 C 80.5,65.1667 80.5,67.8333 80.5,70.5C 79.5489,71.9187 79.2155,73.5853 79.5,75.5C 77.8561,75.2865 76.3561,75.6198 75,76.5C 74.0853,75.6721 73.4186,74.6721 73,73.5C 71.0021,74.2714 69.3354,73.6048 68,71.5C 66.4877,73.9574 65.1544,73.9574 64,71.5C 63.8091,73.7078 63.3091,75.7078 62.5,77.5C 62.5,73.1667 62.5,68.8333 62.5,64.5C 63.3171,62.0314 63.8171,59.3647 64,56.5C 66.9304,58.0663 70.0971,58.8996 73.5,59C 74.6667,59.5 75.5,60.3333 76,61.5C 76.3333,60.8333 76.6667,60.1667 77,59.5C 77.3333,62.1667 77.6667,64.8333 78,67.5C 78.7568,65.6854 79.5902,64.0188 80.5,62.5 Z"/></g>
<g><path style="opacity:1" fill="#5c0c3d" d="M 102.5,70.5 C 102.737,69.209 102.404,68.209 101.5,67.5C 100.833,63.8333 100.167,60.1667 99.5,56.5C 99.369,55.7611 99.5357,55.0944 100,54.5C 102.037,58.8109 103.537,63.3109 104.5,68C 104.316,69.3756 103.649,70.2089 102.5,70.5 Z"/></g>
<g><path style="opacity:1" fill="#0302a9" d="M 176.5,48.5 C 178.081,82.9873 178.748,117.654 178.5,152.5C 178.5,153.5 178.5,154.5 178.5,155.5C 177.833,137.995 177.167,120.329 176.5,102.5C 175.15,111.861 172.817,120.861 169.5,129.5C 169.078,121.516 170.411,113.349 173.5,105C 172.833,103 172.167,101 171.5,99C 173.248,90.9879 173.914,82.9879 173.5,75C 171.899,71.7335 171.066,68.2335 171,64.5C 168.797,62.3312 167.964,59.6646 168.5,56.5C 170.085,57.4737 171.085,58.9737 171.5,61C 173.025,62.0086 174.692,62.5086 176.5,62.5C 176.5,57.8333 176.5,53.1667 176.5,48.5 Z"/></g>
<g><path style="opacity:1" fill="#05a6c9" d="M 138.5,58.5 C 137.868,62.7024 136.868,66.7024 135.5,70.5C 135.388,66.6607 134.721,66.6607 133.5,70.5C 129.786,71.9305 126.286,71.5971 123,69.5C 122.055,69.9054 121.388,70.572 121,71.5C 120.333,66.1667 119.667,66.1667 119,71.5C 118.79,69.9419 118.29,68.6085 117.5,67.5C 117.629,65.7839 117.962,64.1172 118.5,62.5C 119.268,61.7375 119.768,60.7375 120,59.5C 120.414,59.9574 120.914,60.2907 121.5,60.5C 123.271,59.9646 123.604,59.1313 122.5,58C 125.76,57.2165 128.927,57.3832 132,58.5C 134.243,55.8862 136.41,55.8862 138.5,58.5 Z"/></g>
<g><path style="opacity:1" fill="#2631f2" d="M 98.5,54.5 C 98.3284,55.4916 98.6618,56.1583 99.5,56.5C 100.167,60.1667 100.833,63.8333 101.5,67.5C 101.775,72.2203 100.941,72.5537 99,68.5C 94.5945,69.4835 90.4279,69.4835 86.5,68.5C 86.5401,63.8075 86.8734,59.1408 87.5,54.5C 91.1667,54.5 94.8333,54.5 98.5,54.5 Z"/></g>
<g><path style="opacity:1" fill="#984c57" d="M 15.5,48.5 C 15.5,57.5 15.5,66.5 15.5,75.5C 14.6773,78.977 14.1773,82.6437 14,86.5C 14.2093,76.8541 10.7093,75.1874 3.5,81.5C 2.16003,80.1335 0.826694,78.8001 -0.5,77.5C -0.5,71.5 -0.5,65.5 -0.5,59.5C 2.90961,57.4648 6.57628,55.9648 10.5,55C 9.54943,54.2825 9.38277,53.4491 10,52.5C 11.3159,49.972 12.4826,49.972 13.5,52.5C 14.1719,51.0508 14.8386,49.7175 15.5,48.5 Z"/></g>
<g><path style="opacity:1" fill="#33074b" d="M 139.5,54.5 C 141.201,54.9662 142.701,54.9662 144,54.5C 145.878,55.0527 147.378,56.0527 148.5,57.5C 148.296,60.5176 147.963,63.5176 147.5,66.5C 146.503,71.1382 145.503,75.8049 144.5,80.5C 141.459,85.2968 140.126,90.6302 140.5,96.5C 138.027,96.0882 136.694,97.0882 136.5,99.5C 136.167,99.5 135.833,99.5 135.5,99.5C 135.5,98.5 135.5,97.5 135.5,96.5C 135.5,94.8333 135.5,93.1667 135.5,91.5C 135.5,90.5 135.5,89.5 135.5,88.5C 134.5,88.5 133.5,88.5 132.5,88.5C 132.5,87.1667 132.5,85.8333 132.5,84.5C 134.262,80.0268 135.262,75.3602 135.5,70.5C 136.868,66.7024 137.868,62.7024 138.5,58.5C 139.234,57.2921 139.567,55.9587 139.5,54.5 Z"/></g>
<g><path style="opacity:1" fill="#1452f9" d="M 101.5,67.5 C 102.404,68.209 102.737,69.209 102.5,70.5C 102.5,70.8333 102.5,71.1667 102.5,71.5C 102.5,72.8333 102.5,74.1667 102.5,75.5C 100.876,75.3601 99.7096,76.0267 99,77.5C 95.8506,75.6375 92.3506,74.9709 88.5,75.5C 88.5,76.5 88.5,77.5 88.5,78.5C 87.8333,77.1667 87.1667,75.8333 86.5,74.5C 86.5,72.5 86.5,70.5 86.5,68.5C 90.4279,69.4835 94.5945,69.4835 99,68.5C 100.941,72.5537 101.775,72.2203 101.5,67.5 Z"/></g>
<g><path style="opacity:1" fill="#470a5f" d="M 115.5,75.5 C 115.5,77.1667 115.5,78.8333 115.5,80.5C 114.596,81.209 114.263,82.209 114.5,83.5C 112.31,85.9392 110.81,85.2725 110,81.5C 109.667,82.1667 109.333,82.8333 109,83.5C 108.547,80.2329 107.713,77.0662 106.5,74C 105.87,72.6898 104.87,71.8565 103.5,71.5C 103.167,71.5 102.833,71.5 102.5,71.5C 102.5,71.1667 102.5,70.8333 102.5,70.5C 103.649,70.2089 104.316,69.3756 104.5,68C 103.537,63.3109 102.037,58.8109 100,54.5C 99.5357,55.0944 99.369,55.7611 99.5,56.5C 98.6618,56.1583 98.3284,55.4916 98.5,54.5C 98.5,53.8333 98.1667,53.5 97.5,53.5C 97.2786,52.2652 96.6119,51.2652 95.5,50.5C 96.376,49.7492 97.376,49.2492 98.5,49C 98.0426,48.586 97.7093,48.086 97.5,47.5C 98.8333,46.1667 100.167,46.1667 101.5,47.5C 102.163,52.345 103.33,57.0116 105,61.5C 105.833,62.3333 106.667,63.1667 107.5,64C 106.483,65.0495 106.316,66.2161 107,67.5C 107.667,66.1667 108.333,66.1667 109,67.5C 110.208,70.9198 111.708,74.2532 113.5,77.5C 114.182,76.7573 114.849,76.0906 115.5,75.5 Z"/></g>
<g><path style="opacity:1" fill="#370c39" d="M 32.5,30.5 C 32.6621,32.5273 32.4955,34.5273 32,36.5C 30.0171,37.982 28.1837,39.6487 26.5,41.5C 26.4762,43.2453 26.8095,45.0786 27.5,47C 27.0364,52.4774 26.0364,57.8108 24.5,63C 25.1667,68 25.8333,73 26.5,78C 23.9232,81.4046 23.9232,84.738 26.5,88C 25.9032,89.0617 25.5698,90.2284 25.5,91.5C 26.0049,96.0716 26.6716,100.572 27.5,105C 27.0856,114.548 26.0856,124.048 24.5,133.5C 26.2161,135.915 26.7161,138.582 26,141.5C 25.3333,140.167 24.3333,139.167 23,138.5C 21.9549,125.526 21.1216,112.526 20.5,99.5C 19.8333,99.1667 19.1667,98.8333 18.5,98.5C 18.1667,100 17.8333,101.5 17.5,103C 17.0051,110.335 16.3384,117.502 15.5,124.5C 15.5,121.167 15.5,117.833 15.5,114.5C 15.5,109.833 15.5,105.167 15.5,100.5C 16.1235,85.6381 16.9569,70.6381 18,55.5C 18.1967,50.8218 19.1967,50.4884 21,54.5C 22.1065,50.1965 23.1065,45.8632 24,41.5C 25.5815,36.7652 28.4149,33.0985 32.5,30.5 Z"/></g>
<g><path style="opacity:1" fill="#0d71f8" d="M 102.5,71.5 C 102.833,71.5 103.167,71.5 103.5,71.5C 103.5,73.8333 103.5,76.1667 103.5,78.5C 98.4053,78.2213 93.4053,78.5546 88.5,79.5C 88.5,79.1667 88.5,78.8333 88.5,78.5C 88.5,77.5 88.5,76.5 88.5,75.5C 92.3506,74.9709 95.8506,75.6375 99,77.5C 99.7096,76.0267 100.876,75.3601 102.5,75.5C 102.5,74.1667 102.5,72.8333 102.5,71.5 Z"/></g>
<g><path style="opacity:1" fill="#0cbbd4" d="M 156.5,67.5 C 156.167,70.1667 155.833,72.8333 155.5,75.5C 154.833,77.1667 154.167,78.8333 153.5,80.5C 153.631,79.7611 153.464,79.0944 153,78.5C 150.311,79.9365 147.477,80.9365 144.5,81.5C 144.5,81.1667 144.5,80.8333 144.5,80.5C 145.503,75.8049 146.503,71.1382 147.5,66.5C 148.117,66.6107 148.617,66.944 149,67.5C 149.667,62.1667 150.333,62.1667 151,67.5C 153.028,67.1924 154.861,67.1924 156.5,67.5 Z"/></g>
<g><path style="opacity:1" fill="#0ae7e4" d="M 80.5,70.5 C 80.5,70.8333 80.5,71.1667 80.5,71.5C 80.5,83.8333 80.5,96.1667 80.5,108.5C 79.6706,100.343 79.1706,92.0101 79,83.5C 78.6667,91.1667 78.3333,98.8333 78,106.5C 77.6667,100.5 77.3333,94.5 77,88.5C 76.6905,89.7659 76.1905,90.9326 75.5,92C 73.1093,92.2868 70.7759,92.7868 68.5,93.5C 67.4593,91.0087 66.6259,91.0087 66,93.5C 65.3333,90.1667 64.6667,86.8333 64,83.5C 63.3333,93.5 63.3333,103.5 64,113.5C 64.1492,110.721 64.9826,110.221 66.5,112C 64.8866,114.228 64.22,116.728 64.5,119.5C 62.5328,119.261 60.6995,119.594 59,120.5C 58.5357,119.906 58.369,119.239 58.5,118.5C 60.1436,117.684 61.3103,116.35 62,114.5C 62.4999,102.171 62.6665,89.8378 62.5,77.5C 63.3091,75.7078 63.8091,73.7078 64,71.5C 65.1544,73.9574 66.4877,73.9574 68,71.5C 69.3354,73.6048 71.0021,74.2714 73,73.5C 73.4186,74.6721 74.0853,75.6721 75,76.5C 76.3561,75.6198 77.8561,75.2865 79.5,75.5C 79.2155,73.5853 79.5489,71.9187 80.5,70.5 Z"/></g>
<g><path style="opacity:1" fill="#451472" d="M 58.5,23.5 C 60.1667,23.5 61.8333,23.5 63.5,23.5C 60.3356,24.4751 57.5023,26.1417 55,28.5C 54.51,29.7932 54.3433,31.1266 54.5,32.5C 53.325,32.281 52.325,32.6143 51.5,33.5C 49.3333,36.5 47.1667,39.5 45,42.5C 43.3822,47.1849 41.8822,51.8515 40.5,56.5C 38.7003,62.0907 37.7003,68.0907 37.5,74.5C 37.8333,76.5 38.1667,78.5 38.5,80.5C 35.9054,93.8609 35.9054,107.194 38.5,120.5C 38.4431,121.609 38.1098,122.609 37.5,123.5C 35.2417,123.225 34.9084,122.225 36.5,120.5C 34.3366,98.5131 34.3366,76.5131 36.5,54.5C 38.4988,47.6734 40.9988,41.0067 44,34.5C 48.7183,30.6062 53.5517,26.9396 58.5,23.5 Z"/></g>
<g><path style="opacity:1" fill="#08ccdc" d="M 117.5,67.5 C 118.29,68.6085 118.79,69.9419 119,71.5C 119.667,66.1667 120.333,66.1667 121,71.5C 121.388,70.572 122.055,69.9054 123,69.5C 126.286,71.5971 129.786,71.9305 133.5,70.5C 134.721,66.6607 135.388,66.6607 135.5,70.5C 135.262,75.3602 134.262,80.0268 132.5,84.5C 131.417,84.4606 130.417,84.1272 129.5,83.5C 128.808,84.0253 128.308,84.6919 128,85.5C 124.695,84.0102 121.695,82.0102 119,79.5C 117.989,80.3366 116.822,80.67 115.5,80.5C 115.5,78.8333 115.5,77.1667 115.5,75.5C 116.234,74.2921 116.567,72.9587 116.5,71.5C 116.232,69.901 116.566,68.5676 117.5,67.5 Z"/></g>
<g><path style="opacity:1" fill="#1b136f" d="M 80.5,53.5 C 81.1429,60.4424 82.1429,67.4424 83.5,74.5C 84.5,74.5 85.5,74.5 86.5,74.5C 87.1667,75.8333 87.8333,77.1667 88.5,78.5C 88.5,78.8333 88.5,79.1667 88.5,79.5C 88.5,80.8333 88.5,82.1667 88.5,83.5C 86.722,81.6684 84.722,80.0018 82.5,78.5C 81.8333,76.1667 81.1667,73.8333 80.5,71.5C 80.5,71.1667 80.5,70.8333 80.5,70.5C 80.5,67.8333 80.5,65.1667 80.5,62.5C 80.5,59.5 80.5,56.5 80.5,53.5 Z"/></g>
<g><path style="opacity:1" fill="#0d94fb" d="M 103.5,78.5 C 104.404,79.209 104.737,80.209 104.5,81.5C 101.624,81.9272 98.7906,82.5938 96,83.5C 94.4626,82.9655 92.9626,82.6322 91.5,82.5C 90.5713,83.6888 90.238,85.0222 90.5,86.5C 89.8333,85.5 89.1667,84.5 88.5,83.5C 88.5,82.1667 88.5,80.8333 88.5,79.5C 93.4053,78.5546 98.4053,78.2213 103.5,78.5 Z"/></g>
<g><path style="opacity:1" fill="#57189b" d="M 46.5,48.5 C 45.9206,52.965 44.9206,57.6317 43.5,62.5C 43.8457,65.5755 44.5124,68.5755 45.5,71.5C 46.5,71 47.5,70.5 48.5,70C 46.0684,68.9125 46.4017,68.4125 49.5,68.5C 50.5767,65.4742 50.5767,62.4742 49.5,59.5C 52.2939,56.8702 54.9606,54.0368 57.5,51C 59.4406,50.2571 61.2739,50.4238 63,51.5C 63.3333,50.8333 63.6667,50.1667 64,49.5C 65.0674,50.1905 66.2341,50.6905 67.5,51C 66.5,51.3333 65.5,51.6667 64.5,52C 68.1516,52.4986 71.8183,52.6653 75.5,52.5C 77.099,52.2322 78.4324,52.5655 79.5,53.5C 73.642,53.1778 67.9753,53.5111 62.5,54.5C 60.5,55.1667 58.5,55.8333 56.5,56.5C 55.8863,65.941 53.8863,74.941 50.5,83.5C 49.8423,84.3984 49.1757,85.3984 48.5,86.5C 47.8076,85.9747 47.3076,85.3081 47,84.5C 46.8283,89.2018 46.3283,93.8685 45.5,98.5C 44.0795,91.8883 42.9129,85.2217 42,78.5C 41.6174,77.944 41.1174,77.6107 40.5,77.5C 40.5,71.8333 40.5,66.1667 40.5,60.5C 42.1374,56.3478 44.1374,52.3478 46.5,48.5 Z"/></g>
<g><path style="opacity:1" fill="#380a42" d="M 103.5,71.5 C 104.87,71.8565 105.87,72.6898 106.5,74C 107.713,77.0662 108.547,80.2329 109,83.5C 109.333,82.8333 109.667,82.1667 110,81.5C 110.81,85.2725 112.31,85.9392 114.5,83.5C 113.574,88.4632 112.908,93.4632 112.5,98.5C 111.539,100.265 111.205,102.265 111.5,104.5C 110.778,104.918 110.278,105.584 110,106.5C 108.936,101.103 107.769,95.7701 106.5,90.5C 106.634,88.7085 106.301,87.0418 105.5,85.5C 105.167,84.1667 104.833,82.8333 104.5,81.5C 104.737,80.209 104.404,79.209 103.5,78.5C 103.5,76.1667 103.5,73.8333 103.5,71.5 Z"/></g>
<g><path style="opacity:1" fill="#500f79" d="M 62.5,54.5 C 62.5,55.8333 62.5,57.1667 62.5,58.5C 61.71,59.6085 61.21,60.9419 61,62.5C 60.3333,63.8333 59.6667,63.8333 59,62.5C 57.3891,66.8045 55.7224,71.1378 54,75.5C 54.2174,84.4781 54.3841,93.4781 54.5,102.5C 55.7259,106.845 55.7259,111.178 54.5,115.5C 53.1667,115.5 51.8333,115.5 50.5,115.5C 50.5,104.833 50.5,94.1667 50.5,83.5C 53.8863,74.941 55.8863,65.941 56.5,56.5C 58.5,55.8333 60.5,55.1667 62.5,54.5 Z"/></g>
<g><path style="opacity:1" fill="#580b69" d="M 62.5,58.5 C 62.5,60.1667 62.5,61.8333 62.5,63.5C 60.8104,67.207 59.6438,71.207 59,75.5C 58.6667,82.5 58.3333,89.5 58,96.5C 56.1988,98.6402 55.0321,100.64 54.5,102.5C 54.3841,93.4781 54.2174,84.4781 54,75.5C 55.7224,71.1378 57.3891,66.8045 59,62.5C 59.6667,63.8333 60.3333,63.8333 61,62.5C 61.21,60.9419 61.71,59.6085 62.5,58.5 Z"/></g>
<g><path style="opacity:1" fill="#07adfc" d="M 104.5,81.5 C 104.833,82.8333 105.167,84.1667 105.5,85.5C 100.848,86.4958 96.1813,87.4958 91.5,88.5C 91.5,89.5 91.5,90.5 91.5,91.5C 91.1667,91.5 90.8333,91.5 90.5,91.5C 90.5,89.8333 90.5,88.1667 90.5,86.5C 90.238,85.0222 90.5713,83.6888 91.5,82.5C 92.9626,82.6322 94.4626,82.9655 96,83.5C 98.7906,82.5938 101.624,81.9272 104.5,81.5 Z"/></g>
<g><path style="opacity:1" fill="#883f55" d="M 15.5,75.5 C 15.5,79.8333 15.5,84.1667 15.5,88.5C 14.6767,96.3533 13.51,96.3533 12,88.5C 10.2932,89.9436 8.45985,91.277 6.5,92.5C 5.91395,92.2907 5.41395,91.9574 5,91.5C 4.13537,93.2251 3.4687,94.8917 3,96.5C 2.77671,94.1192 1.61005,92.4525 -0.5,91.5C -0.5,86.8333 -0.5,82.1667 -0.5,77.5C 0.826694,78.8001 2.16003,80.1335 3.5,81.5C 10.7093,75.1874 14.2093,76.8541 14,86.5C 14.1773,82.6437 14.6773,78.977 15.5,75.5 Z"/></g>
<g><path style="opacity:1" fill="#11c5fb" d="M 105.5,85.5 C 106.301,87.0418 106.634,88.7085 106.5,90.5C 102.921,93.0551 98.9205,94.7218 94.5,95.5C 93.9426,97.7175 93.9426,100.051 94.5,102.5C 92.7424,99.1456 91.7424,95.479 91.5,91.5C 91.5,90.5 91.5,89.5 91.5,88.5C 96.1813,87.4958 100.848,86.4958 105.5,85.5 Z"/></g>
<g><path style="opacity:1" fill="#010274" d="M 198.5,42.5 C 198.5,64.5 198.5,86.5 198.5,108.5C 197.533,109.806 196.199,110.473 194.5,110.5C 193.64,113.911 192.474,117.244 191,120.5C 190.586,120.043 190.086,119.709 189.5,119.5C 188.64,121.931 186.973,123.264 184.5,123.5C 184.799,125.604 184.466,127.604 183.5,129.5C 182.167,119.5 182.167,109.5 183.5,99.5C 187.104,92.8708 190.771,86.2041 194.5,79.5C 195.281,80.7287 195.781,82.062 196,83.5C 196.167,81.5 196.333,79.5 196.5,77.5C 195.007,70.6672 194.007,63.0005 193.5,54.5C 191.607,44.3685 189.107,44.0352 186,53.5C 185.667,51.5 185.333,49.5 185,47.5C 184.272,50.2305 184.438,52.8971 185.5,55.5C 184.675,56.3857 183.675,56.719 182.5,56.5C 182.806,53.6146 182.473,50.9479 181.5,48.5C 181.384,45.1401 181.051,41.8067 180.5,38.5C 180.833,38.5 181.167,38.5 181.5,38.5C 182.226,41.1794 183.059,43.846 184,46.5C 185.191,41.2001 187.857,39.8668 192,42.5C 193,38.5 194,38.5 195,42.5C 195.333,40.5 195.667,38.5 196,36.5C 196.002,39.0512 196.836,41.0512 198.5,42.5 Z"/></g>
<g><path style="opacity:1" fill="#1110a5" d="M 132.5,88.5 C 133.5,88.5 134.5,88.5 135.5,88.5C 135.5,89.5 135.5,90.5 135.5,91.5C 133.32,93.8633 131.653,96.53 130.5,99.5C 130.646,95.6125 131.313,91.9458 132.5,88.5 Z"/></g>
<g><path style="opacity:1" fill="#160a45" d="M 153.5,82.5 C 153.701,85.7281 153.367,88.8948 152.5,92C 152.667,92.5 152.833,93 153,93.5C 154,90.8333 155,90.8333 156,93.5C 156.853,91.8753 157.853,91.5419 159,92.5C 159.56,95.1907 159.06,98.0241 157.5,101C 157.833,101.333 158.167,101.667 158.5,102C 156.854,103.555 156.521,105.221 157.5,107C 155.905,106.383 154.572,106.716 153.5,108C 152.869,110.312 152.869,112.812 153.5,115.5C 152.103,117.982 151.269,120.648 151,123.5C 150.333,122.833 149.667,122.167 149,121.5C 148.304,125.666 147.971,129.666 148,133.5C 146.855,134.684 145.688,134.684 144.5,133.5C 143.462,129.205 143.462,124.871 144.5,120.5C 144.5,119.5 144.5,118.5 144.5,117.5C 147.386,105.714 150.386,94.047 153.5,82.5 Z"/></g>
<g><path style="opacity:1" fill="#0c28e5" d="M 135.5,91.5 C 135.5,93.1667 135.5,94.8333 135.5,96.5C 133.541,98.7847 132.208,101.451 131.5,104.5C 130.761,104.631 130.094,104.464 129.5,104C 130.38,102.644 130.714,101.144 130.5,99.5C 131.653,96.53 133.32,93.8633 135.5,91.5 Z"/></g>
<g><path style="opacity:1" fill="#3b0e89" d="M 40.5,77.5 C 41.1174,77.6107 41.6174,77.944 42,78.5C 42.9129,85.2217 44.0795,91.8883 45.5,98.5C 46.3283,93.8685 46.8283,89.2018 47,84.5C 47.3076,85.3081 47.8076,85.9747 48.5,86.5C 49.1757,85.3984 49.8423,84.3984 50.5,83.5C 50.5,94.1667 50.5,104.833 50.5,115.5C 49.5,115.5 48.5,115.5 47.5,115.5C 44.9556,115.104 42.7889,115.771 41,117.5C 39.9494,104.223 39.7827,90.8894 40.5,77.5 Z"/></g>
<g><path style="opacity:1" fill="#360d5c" d="M 58.5,23.5 C 53.5517,26.9396 48.7183,30.6062 44,34.5C 40.9988,41.0067 38.4988,47.6734 36.5,54.5C 34.3366,76.5131 34.3366,98.5131 36.5,120.5C 34.9084,122.225 35.2417,123.225 37.5,123.5C 36.7659,124.708 36.4326,126.041 36.5,127.5C 35.0932,130.039 33.9265,129.706 33,126.5C 32.4216,104.16 32.0883,81.8272 32,59.5C 32.2722,54.279 33.2722,49.279 35,44.5C 37.5352,38.7706 40.0352,33.1039 42.5,27.5C 43.8333,27.5 45.1667,27.5 46.5,27.5C 46.5,26.5 46.5,25.5 46.5,24.5C 50.4517,23.7279 54.4517,23.3946 58.5,23.5 Z"/></g>
<g><path style="opacity:1" fill="#15133c" d="M 144.5,80.5 C 144.5,80.8333 144.5,81.1667 144.5,81.5C 142.93,92.71 140.43,103.71 137,114.5C 136.536,113.906 136.369,113.239 136.5,112.5C 136.5,108.167 136.5,103.833 136.5,99.5C 136.694,97.0882 138.027,96.0882 140.5,96.5C 140.126,90.6302 141.459,85.2968 144.5,80.5 Z"/></g>
<g><path style="opacity:1" fill="#06f2f0" d="M 132.5,84.5 C 132.5,85.8333 132.5,87.1667 132.5,88.5C 131.313,91.9458 130.646,95.6125 130.5,99.5C 128.96,101.838 128.294,104.505 128.5,107.5C 127.549,108.919 127.216,110.585 127.5,112.5C 126.662,112.842 126.328,113.508 126.5,114.5C 126.762,115.978 126.429,117.311 125.5,118.5C 124.622,114.411 123.455,110.411 122,106.5C 120.373,107.532 119.207,108.866 118.5,110.5C 117.209,109.458 117.209,108.292 118.5,107C 116.527,106.505 114.527,106.338 112.5,106.5C 113.258,103.648 113.258,100.981 112.5,98.5C 112.908,93.4632 113.574,88.4632 114.5,83.5C 114.263,82.209 114.596,81.209 115.5,80.5C 116.822,80.67 117.989,80.3366 119,79.5C 121.695,82.0102 124.695,84.0102 128,85.5C 128.308,84.6919 128.808,84.0253 129.5,83.5C 130.417,84.1272 131.417,84.4606 132.5,84.5 Z"/></g>
<g><path style="opacity:1" fill="#0edcfb" d="M 106.5,90.5 C 107.769,95.7701 108.936,101.103 110,106.5C 110.278,105.584 110.778,104.918 111.5,104.5C 111.657,105.873 111.49,107.207 111,108.5C 109.442,107.655 108.442,108.321 108,110.5C 106.605,109.185 105.605,109.519 105,111.5C 104.667,111.167 104.333,110.833 104,110.5C 102.494,112.174 100.661,113.174 98.5,113.5C 98.5,115.167 98.5,116.833 98.5,118.5C 96.8571,114.591 95.5237,110.591 94.5,106.5C 94.5,105.167 94.5,103.833 94.5,102.5C 93.9426,100.051 93.9426,97.7175 94.5,95.5C 98.9205,94.7218 102.921,93.0551 106.5,90.5 Z"/></g>
<g><path style="opacity:1" fill="#763452" d="M 15.5,88.5 C 15.5,92.5 15.5,96.5 15.5,100.5C 15.5,105.167 15.5,109.833 15.5,114.5C 13.5012,115.857 12.3345,115.19 12,112.5C 11.8882,115.447 10.3882,116.78 7.5,116.5C 7.7035,118.39 7.03683,119.89 5.5,121C 5.83333,121.333 6.16667,121.667 6.5,122C 4.32253,123.202 1.9892,123.702 -0.5,123.5C -0.5,112.833 -0.5,102.167 -0.5,91.5C 1.61005,92.4525 2.77671,94.1192 3,96.5C 3.4687,94.8917 4.13537,93.2251 5,91.5C 5.41395,91.9574 5.91395,92.2907 6.5,92.5C 8.45985,91.277 10.2932,89.9436 12,88.5C 13.51,96.3533 14.6767,96.3533 15.5,88.5 Z"/></g>
<g><path style="opacity:1" fill="#410956" d="M 62.5,63.5 C 62.5,63.8333 62.5,64.1667 62.5,64.5C 62.5,68.8333 62.5,73.1667 62.5,77.5C 62.6665,89.8378 62.4999,102.171 62,114.5C 61.3103,116.35 60.1436,117.684 58.5,118.5C 55.0336,116.908 51.3669,116.242 47.5,116.5C 47.5,116.167 47.5,115.833 47.5,115.5C 48.5,115.5 49.5,115.5 50.5,115.5C 51.8333,115.5 53.1667,115.5 54.5,115.5C 55.7259,111.178 55.7259,106.845 54.5,102.5C 55.0321,100.64 56.1988,98.6402 58,96.5C 58.3333,89.5 58.6667,82.5 59,75.5C 59.6438,71.207 60.8104,67.207 62.5,63.5 Z"/></g>
<g><path style="opacity:1" fill="#05f7ed" d="M 80.5,108.5 C 81.073,116.023 80.2396,123.356 78,130.5C 75.6121,133.939 72.4455,136.272 68.5,137.5C 72.807,130.324 70.6403,125.99 62,124.5C 61.6667,124.833 61.3333,125.167 61,125.5C 56.2066,122.436 51.0399,121.769 45.5,123.5C 44.4937,123.062 44.4937,122.396 45.5,121.5C 44.452,120.452 43.452,119.452 42.5,118.5C 43.7804,117.069 45.4471,116.402 47.5,116.5C 51.3669,116.242 55.0336,116.908 58.5,118.5C 58.369,119.239 58.5357,119.906 59,120.5C 60.6995,119.594 62.5328,119.261 64.5,119.5C 64.22,116.728 64.8866,114.228 66.5,112C 64.9826,110.221 64.1492,110.721 64,113.5C 63.3333,103.5 63.3333,93.5 64,83.5C 64.6667,86.8333 65.3333,90.1667 66,93.5C 66.6259,91.0087 67.4593,91.0087 68.5,93.5C 70.7759,92.7868 73.1093,92.2868 75.5,92C 76.1905,90.9326 76.6905,89.7659 77,88.5C 77.3333,94.5 77.6667,100.5 78,106.5C 78.3333,98.8333 78.6667,91.1667 79,83.5C 79.1706,92.0101 79.6706,100.343 80.5,108.5 Z"/></g>
<g><path style="opacity:1" fill="#1053d3" d="M 130.5,99.5 C 130.714,101.144 130.38,102.644 129.5,104C 130.094,104.464 130.761,104.631 131.5,104.5C 131.315,106.196 130.481,107.529 129,108.5C 128.601,108.272 128.435,107.938 128.5,107.5C 128.294,104.505 128.96,101.838 130.5,99.5 Z"/></g>
<g><path style="opacity:1" fill="#190a49" d="M 82.5,78.5 C 84.722,80.0018 86.722,81.6684 88.5,83.5C 89.1667,84.5 89.8333,85.5 90.5,86.5C 90.5,88.1667 90.5,89.8333 90.5,91.5C 90.735,95.5767 91.4017,99.5767 92.5,103.5C 90.016,104.894 90.016,106.394 92.5,108C 90.122,113.297 90.122,118.631 92.5,124C 90.5636,133.023 86.8969,139.856 81.5,144.5C 79.4842,145.456 77.6508,146.79 76,148.5C 74.4555,147.179 73.2888,147.512 72.5,149.5C 68.3474,150.177 64.3474,151.177 60.5,152.5C 54.5978,150.467 48.5978,148.8 42.5,147.5C 42.6621,145.473 42.4955,143.473 42,141.5C 41.6174,140.944 41.1174,140.611 40.5,140.5C 40.366,138.708 40.6993,137.042 41.5,135.5C 42.1667,135.833 42.8333,136.167 43.5,136.5C 43.5,137.5 43.5,138.5 43.5,139.5C 44.552,139.351 45.552,139.517 46.5,140C 44.503,141.153 44.1696,142.653 45.5,144.5C 46.1667,143.833 46.8333,143.167 47.5,142.5C 50.3728,143.775 53.3728,144.608 56.5,145C 55.3774,146.044 54.0441,146.71 52.5,147C 56.1516,147.499 59.8183,147.665 63.5,147.5C 63.281,146.325 63.6143,145.325 64.5,144.5C 67.1071,143.863 69.4404,142.696 71.5,141C 70.8333,140.667 70.1667,140.333 69.5,140C 70.7839,139.316 71.9505,139.483 73,140.5C 73.9147,139.672 74.5814,138.672 75,137.5C 76.4371,139.221 75.9371,140.721 73.5,142C 75.4247,141.865 77.4247,141.698 79.5,141.5C 79.9452,138.72 79.9452,136.053 79.5,133.5C 81.1014,132.796 82.4348,131.629 83.5,130C 82.1667,128.667 82.1667,127.333 83.5,126C 82.8333,125 82.1667,124 81.5,123C 83.1452,117.543 84.1452,111.877 84.5,106C 84.0211,102.417 85.0211,99.0841 87.5,96C 86.3025,91.3427 85.6359,86.8427 85.5,82.5C 84.5,82.5 83.5,82.5 82.5,82.5C 82.5,81.1667 82.5,79.8333 82.5,78.5 Z"/></g>
<g><path style="opacity:1" fill="#12eff1" d="M 153.5,80.5 C 153.5,81.1667 153.5,81.8333 153.5,82.5C 150.386,94.047 147.386,105.714 144.5,117.5C 143.683,115.031 143.183,112.365 143,109.5C 139.807,112.602 137.64,116.268 136.5,120.5C 135.5,120.5 134.5,120.5 133.5,120.5C 133.5,121.5 133.5,122.5 133.5,123.5C 131.5,123.167 129.5,122.833 127.5,122.5C 127.5,121.5 127.5,120.5 127.5,119.5C 126.5,119.5 125.5,119.5 124.5,119.5C 124.649,120.552 124.483,121.552 124,122.5C 123.71,120.956 123.044,119.623 122,118.5C 121.257,116.559 121.424,114.726 122.5,113C 121.809,111.933 121.309,110.766 121,109.5C 120.517,110.448 120.351,111.448 120.5,112.5C 119.833,111.833 119.167,111.167 118.5,110.5C 119.207,108.866 120.373,107.532 122,106.5C 123.455,110.411 124.622,114.411 125.5,118.5C 126.429,117.311 126.762,115.978 126.5,114.5C 129.809,114.692 132.309,113.359 134,110.5C 134.417,111.756 135.25,112.423 136.5,112.5C 136.369,113.239 136.536,113.906 137,114.5C 140.43,103.71 142.93,92.71 144.5,81.5C 147.477,80.9365 150.311,79.9365 153,78.5C 153.464,79.0944 153.631,79.7611 153.5,80.5 Z"/></g>
<g><path style="opacity:1" fill="#360f78" d="M 40.5,56.5 C 40.5,57.8333 40.5,59.1667 40.5,60.5C 40.5,66.1667 40.5,71.8333 40.5,77.5C 39.7827,90.8894 39.9494,104.223 41,117.5C 42.7889,115.771 44.9556,115.104 47.5,115.5C 47.5,115.833 47.5,116.167 47.5,116.5C 45.4471,116.402 43.7804,117.069 42.5,118.5C 40.9382,118.733 39.6049,119.4 38.5,120.5C 35.9054,107.194 35.9054,93.8609 38.5,80.5C 38.1667,78.5 37.8333,76.5 37.5,74.5C 37.7003,68.0907 38.7003,62.0907 40.5,56.5 Z"/></g>
<g><path style="opacity:1" fill="#1cc6f3" d="M 135.5,99.5 C 135.833,99.5 136.167,99.5 136.5,99.5C 136.5,103.833 136.5,108.167 136.5,112.5C 135.25,112.423 134.417,111.756 134,110.5C 132.309,113.359 129.809,114.692 126.5,114.5C 126.328,113.508 126.662,112.842 127.5,112.5C 129.075,110.475 130.908,108.475 133,106.5C 133.153,103.849 133.987,101.516 135.5,99.5 Z"/></g>
<g><path style="opacity:1" fill="#0101a3" d="M 160.5,53.5 C 160.833,53.5 161.167,53.5 161.5,53.5C 161.5,54.5 161.5,55.5 161.5,56.5C 163.833,56.5 166.167,56.5 168.5,56.5C 167.964,59.6646 168.797,62.3312 171,64.5C 171.066,68.2335 171.899,71.7335 173.5,75C 173.914,82.9879 173.248,90.9879 171.5,99C 172.167,101 172.833,103 173.5,105C 170.411,113.349 169.078,121.516 169.5,129.5C 168.778,133.506 167.945,137.506 167,141.5C 163.865,147.108 161.032,152.775 158.5,158.5C 154.997,159.751 151.997,161.751 149.5,164.5C 149.082,163.778 148.416,163.278 147.5,163C 149.167,161.667 150.833,160.333 152.5,159C 152.043,158.586 151.709,158.086 151.5,157.5C 156.522,148.752 160.022,139.418 162,129.5C 163.631,126.962 164.964,124.295 166,121.5C 168.015,109.469 169.515,97.4694 170.5,85.5C 170.492,80.7784 169.825,76.4451 168.5,72.5C 168.219,68.8121 167.719,65.1454 167,61.5C 166.586,61.0426 166.086,60.7093 165.5,60.5C 163.851,62.6499 162.018,64.6499 160,66.5C 159.503,64.1902 159.337,61.8568 159.5,59.5C 159.366,57.7085 159.699,56.0418 160.5,54.5C 160.5,54.1667 160.5,53.8333 160.5,53.5 Z"/></g>
<g><path style="opacity:1" fill="#1187ea" d="M 135.5,96.5 C 135.5,97.5 135.5,98.5 135.5,99.5C 133.987,101.516 133.153,103.849 133,106.5C 130.908,108.475 129.075,110.475 127.5,112.5C 127.216,110.585 127.549,108.919 128.5,107.5C 128.435,107.938 128.601,108.272 129,108.5C 130.481,107.529 131.315,106.196 131.5,104.5C 132.208,101.451 133.541,98.7847 135.5,96.5 Z"/></g>
<g><path style="opacity:1" fill="#0af4f6" d="M 112.5,98.5 C 113.258,100.981 113.258,103.648 112.5,106.5C 114.527,106.338 116.527,106.505 118.5,107C 117.209,108.292 117.209,109.458 118.5,110.5C 116.073,120.39 114.073,130.39 112.5,140.5C 109.833,140.5 107.167,140.5 104.5,140.5C 102.755,138.967 101.755,136.967 101.5,134.5C 100.182,129.227 99.1817,123.893 98.5,118.5C 98.5,116.833 98.5,115.167 98.5,113.5C 100.661,113.174 102.494,112.174 104,110.5C 104.333,110.833 104.667,111.167 105,111.5C 105.605,109.519 106.605,109.185 108,110.5C 108.442,108.321 109.442,107.655 111,108.5C 111.49,107.207 111.657,105.873 111.5,104.5C 111.205,102.265 111.539,100.265 112.5,98.5 Z"/></g>
<g><path style="opacity:1" fill="#0afaf2" d="M 144.5,117.5 C 144.5,118.5 144.5,119.5 144.5,120.5C 142.538,126.725 140.538,133.059 138.5,139.5C 133.198,140.663 127.864,140.829 122.5,140C 120.804,130.961 120.137,121.795 120.5,112.5C 120.351,111.448 120.517,110.448 121,109.5C 121.309,110.766 121.809,111.933 122.5,113C 121.424,114.726 121.257,116.559 122,118.5C 123.044,119.623 123.71,120.956 124,122.5C 124.483,121.552 124.649,120.552 124.5,119.5C 125.5,119.5 126.5,119.5 127.5,119.5C 127.5,120.5 127.5,121.5 127.5,122.5C 129.5,122.833 131.5,123.167 133.5,123.5C 133.5,122.5 133.5,121.5 133.5,120.5C 134.5,120.5 135.5,120.5 136.5,120.5C 137.64,116.268 139.807,112.602 143,109.5C 143.183,112.365 143.683,115.031 144.5,117.5 Z"/></g>
<g><path style="opacity:1" fill="#0102f8" d="M 178.5,155.5 C 178.453,158.969 177.787,162.302 176.5,165.5C 174.467,168.578 171.8,170.911 168.5,172.5C 167.518,171.859 166.518,171.193 165.5,170.5C 165.331,171.397 164.998,172.397 164.5,173.5C 163.808,172.975 163.308,172.308 163,171.5C 161.519,174.08 159.352,174.913 156.5,174C 159.279,173.851 159.779,173.017 158,171.5C 153.263,172.469 148.43,172.803 143.5,172.5C 143.567,171.041 143.234,169.708 142.5,168.5C 145.132,167.528 147.465,166.195 149.5,164.5C 151.997,161.751 154.997,159.751 158.5,158.5C 161.032,152.775 163.865,147.108 167,141.5C 167.945,137.506 168.778,133.506 169.5,129.5C 172.817,120.861 175.15,111.861 176.5,102.5C 177.167,120.329 177.833,137.995 178.5,155.5 Z"/></g>
<g><path style="opacity:1" fill="#0ef8e7" d="M 42.5,118.5 C 43.452,119.452 44.452,120.452 45.5,121.5C 44.4937,122.396 44.4937,123.062 45.5,123.5C 51.0399,121.769 56.2066,122.436 61,125.5C 61.3333,125.167 61.6667,124.833 62,124.5C 70.6403,125.99 72.807,130.324 68.5,137.5C 60.1462,141.463 51.8129,141.13 43.5,136.5C 42.8333,136.167 42.1667,135.833 41.5,135.5C 39.8333,132.833 38.1667,130.167 36.5,127.5C 36.4326,126.041 36.7659,124.708 37.5,123.5C 38.1098,122.609 38.4431,121.609 38.5,120.5C 39.6049,119.4 40.9382,118.733 42.5,118.5 Z"/></g>
<g><path style="opacity:1" fill="#03196f" d="M 199.5,30.5 C 199.5,59.8333 199.5,89.1667 199.5,118.5C 198.739,122.182 198.072,126.015 197.5,130C 196.352,131.726 195.185,131.559 194,129.5C 191.651,132.017 189.151,134.35 186.5,136.5C 185.548,138.045 185.215,139.712 185.5,141.5C 194.81,141.672 194.81,142.172 185.5,143C 184.747,144.487 183.914,144.654 183,143.5C 182.79,145.058 182.29,146.391 181.5,147.5C 181.5,144.833 181.5,142.167 181.5,139.5C 182.166,136.642 182.833,133.642 183.5,130.5C 184.251,131.376 184.751,132.376 185,133.5C 188.067,127.161 192.234,121.495 197.5,116.5C 198.393,113.916 198.726,111.249 198.5,108.5C 198.5,86.5 198.5,64.5 198.5,42.5C 198.183,38.2984 198.517,34.2984 199.5,30.5 Z"/></g>
<g><path style="opacity:1" fill="#5b2853" d="M 15.5,114.5 C 15.5,117.833 15.5,121.167 15.5,124.5C 15.5,125.167 15.5,125.833 15.5,126.5C 14.8826,126.611 14.3826,126.944 14,127.5C 13.9846,129.791 13.8179,131.958 13.5,134C 10.1464,134.455 6.8131,134.955 3.5,135.5C 3.16667,137.5 2.83333,139.5 2.5,141.5C 1.5,141.5 0.5,141.5 -0.5,141.5C -0.5,135.5 -0.5,129.5 -0.5,123.5C 1.9892,123.702 4.32253,123.202 6.5,122C 6.16667,121.667 5.83333,121.333 5.5,121C 7.03683,119.89 7.7035,118.39 7.5,116.5C 10.3882,116.78 11.8882,115.447 12,112.5C 12.3345,115.19 13.5012,115.857 15.5,114.5 Z"/></g>
<g><path style="opacity:1" fill="#2b0a4a" d="M 40.5,24.5 C 42.5,24.5 44.5,24.5 46.5,24.5C 46.5,25.5 46.5,26.5 46.5,27.5C 45.1667,27.5 43.8333,27.5 42.5,27.5C 40.0352,33.1039 37.5352,38.7706 35,44.5C 33.2722,49.279 32.2722,54.279 32,59.5C 32.0883,81.8272 32.4216,104.16 33,126.5C 33.9265,129.706 35.0932,130.039 36.5,127.5C 38.1667,130.167 39.8333,132.833 41.5,135.5C 40.6993,137.042 40.366,138.708 40.5,140.5C 39.232,142.67 39.232,144.837 40.5,147C 39.8971,148.825 39.2304,150.659 38.5,152.5C 37.3247,151.145 36.3247,151.312 35.5,153C 36.6843,154.145 36.6843,155.312 35.5,156.5C 34.609,155.89 33.609,155.557 32.5,155.5C 29.1848,152.875 26.8514,149.542 25.5,145.5C 27.3023,144.685 28.3023,143.185 28.5,141C 28.4231,135.043 28.0897,128.543 27.5,121.5C 27.1602,115.424 28.1602,109.591 30.5,104C 29.9993,99.4175 29.9993,94.9175 30.5,90.5C 29.6406,87.0366 28.974,83.5366 28.5,80C 30.5192,75.8449 30.8526,71.5116 29.5,67C 30.2688,61.2043 30.7688,55.3709 31,49.5C 32.3909,43.9944 33.5575,38.3277 34.5,32.5C 37.7181,32.3491 38.0515,31.5158 35.5,30C 36.5908,28.4499 37.9242,27.2832 39.5,26.5C 39.3284,25.5084 39.6618,24.8417 40.5,24.5 Z"/></g>
<g><path style="opacity:1" fill="#1a1242" d="M 80.5,71.5 C 81.1667,73.8333 81.8333,76.1667 82.5,78.5C 82.5,79.8333 82.5,81.1667 82.5,82.5C 83.5,82.5 84.5,82.5 85.5,82.5C 85.6359,86.8427 86.3025,91.3427 87.5,96C 85.0211,99.0841 84.0211,102.417 84.5,106C 84.1452,111.877 83.1452,117.543 81.5,123C 82.1667,124 82.8333,125 83.5,126C 82.1667,127.333 82.1667,128.667 83.5,130C 82.4348,131.629 81.1014,132.796 79.5,133.5C 79.9452,136.053 79.9452,138.72 79.5,141.5C 77.4247,141.698 75.4247,141.865 73.5,142C 75.9371,140.721 76.4371,139.221 75,137.5C 74.5814,138.672 73.9147,139.672 73,140.5C 71.9505,139.483 70.7839,139.316 69.5,140C 70.1667,140.333 70.8333,140.667 71.5,141C 69.4404,142.696 67.1071,143.863 64.5,144.5C 63.6143,145.325 63.281,146.325 63.5,147.5C 59.8183,147.665 56.1516,147.499 52.5,147C 54.0441,146.71 55.3774,146.044 56.5,145C 53.3728,144.608 50.3728,143.775 47.5,142.5C 46.8333,143.167 46.1667,143.833 45.5,144.5C 44.1696,142.653 44.503,141.153 46.5,140C 45.552,139.517 44.552,139.351 43.5,139.5C 43.5,138.5 43.5,137.5 43.5,136.5C 51.8129,141.13 60.1462,141.463 68.5,137.5C 72.4455,136.272 75.6121,133.939 78,130.5C 80.2396,123.356 81.073,116.023 80.5,108.5C 80.5,96.1667 80.5,83.8333 80.5,71.5 Z"/></g>
<g><path style="opacity:1" fill="#10074f" d="M 158.5,112.5 C 156.059,114.075 154.893,116.408 155,119.5C 153.767,122.297 152.267,124.963 150.5,127.5C 151.315,130.414 150.649,133.081 148.5,135.5C 149.348,137.409 149.682,139.409 149.5,141.5C 148.5,141.5 147.5,141.5 146.5,141.5C 146.657,142.873 146.49,144.207 146,145.5C 145.617,144.944 145.117,144.611 144.5,144.5C 144.44,141.979 145.106,139.646 146.5,137.5C 146.333,136.833 146.167,136.167 146,135.5C 145.31,136.738 144.81,136.738 144.5,135.5C 144.5,134.833 144.5,134.167 144.5,133.5C 145.688,134.684 146.855,134.684 148,133.5C 147.971,129.666 148.304,125.666 149,121.5C 149.667,122.167 150.333,122.833 151,123.5C 151.269,120.648 152.103,117.982 153.5,115.5C 152.869,112.812 152.869,110.312 153.5,108C 154.572,106.716 155.905,106.383 157.5,107C 156.521,105.221 156.854,103.555 158.5,102C 158.167,101.667 157.833,101.333 157.5,101C 159.06,98.0241 159.56,95.1907 159,92.5C 157.853,91.5419 156.853,91.8753 156,93.5C 155,90.8333 154,90.8333 153,93.5C 152.833,93 152.667,92.5 152.5,92C 153.367,88.8948 153.701,85.7281 153.5,82.5C 153.5,81.8333 153.5,81.1667 153.5,80.5C 154.167,78.8333 154.833,77.1667 155.5,75.5C 156.171,76.8471 156.171,78.0138 155.5,79C 157.289,79.5205 158.956,79.1871 160.5,78C 161.808,75.6451 162.808,73.1451 163.5,70.5C 164.167,71.1667 164.833,71.8333 165.5,72.5C 166.664,78.8072 166.831,85.1405 166,91.5C 163.932,98.8465 161.432,105.847 158.5,112.5 Z"/></g>
<g><path style="opacity:1" fill="#472457" d="M 15.5,126.5 C 15.5,130.833 15.5,135.167 15.5,139.5C 13.0576,139.354 12.3909,140.187 13.5,142C 9.51247,146.025 4.8458,149.191 -0.5,151.5C -0.5,148.167 -0.5,144.833 -0.5,141.5C 0.5,141.5 1.5,141.5 2.5,141.5C 2.83333,139.5 3.16667,137.5 3.5,135.5C 6.8131,134.955 10.1464,134.455 13.5,134C 13.8179,131.958 13.9846,129.791 14,127.5C 14.3826,126.944 14.8826,126.611 15.5,126.5 Z"/></g>
<g><path style="opacity:1" fill="#180e44" d="M 118.5,110.5 C 119.167,111.167 119.833,111.833 120.5,112.5C 120.137,121.795 120.804,130.961 122.5,140C 127.864,140.829 133.198,140.663 138.5,139.5C 140.538,133.059 142.538,126.725 144.5,120.5C 143.462,124.871 143.462,129.205 144.5,133.5C 144.5,134.167 144.5,134.833 144.5,135.5C 141.688,136.895 140.354,139.229 140.5,142.5C 134.925,142.716 129.258,142.883 123.5,143C 124.34,144.666 123.84,144.833 122,143.5C 121.125,146.215 119.292,147.548 116.5,147.5C 116.719,146.325 116.386,145.325 115.5,144.5C 113.566,144.901 112.066,145.901 111,147.5C 109.964,144.636 108.131,142.636 105.5,141.5C 104.833,141.5 104.5,141.167 104.5,140.5C 107.167,140.5 109.833,140.5 112.5,140.5C 114.073,130.39 116.073,120.39 118.5,110.5 Z"/></g>
<g><path style="opacity:1" fill="#15084b" d="M 144.5,135.5 C 144.81,136.738 145.31,136.738 146,135.5C 146.167,136.167 146.333,136.833 146.5,137.5C 145.106,139.646 144.44,141.979 144.5,144.5C 144.662,146.527 144.495,148.527 144,150.5C 142.989,151.337 141.822,151.67 140.5,151.5C 140.649,152.552 140.483,153.552 140,154.5C 138.475,153.28 136.641,152.613 134.5,152.5C 128.585,152.94 122.585,152.94 116.5,152.5C 116.762,151.022 116.429,149.689 115.5,148.5C 114.709,149.066 114.709,149.899 115.5,151C 113.323,154.494 111.49,154.327 110,150.5C 109.617,151.056 109.117,151.389 108.5,151.5C 107.304,148.579 106.304,145.579 105.5,142.5C 105.5,142.167 105.5,141.833 105.5,141.5C 108.131,142.636 109.964,144.636 111,147.5C 112.066,145.901 113.566,144.901 115.5,144.5C 116.386,145.325 116.719,146.325 116.5,147.5C 119.292,147.548 121.125,146.215 122,143.5C 123.84,144.833 124.34,144.666 123.5,143C 129.258,142.883 134.925,142.716 140.5,142.5C 140.354,139.229 141.688,136.895 144.5,135.5 Z"/></g>
<g><path style="opacity:1" fill="#01266b" d="M 199.5,118.5 C 199.5,126.167 199.5,133.833 199.5,141.5C 198.6,145.722 195.933,147.722 191.5,147.5C 191.671,150.797 191.005,151.131 189.5,148.5C 187.851,149.706 186.351,151.039 185,152.5C 184.667,151.833 184.333,151.167 184,150.5C 183.292,151.381 182.458,152.047 181.5,152.5C 181.5,150.833 181.5,149.167 181.5,147.5C 182.29,146.391 182.79,145.058 183,143.5C 183.914,144.654 184.747,144.487 185.5,143C 194.81,142.172 194.81,141.672 185.5,141.5C 185.215,139.712 185.548,138.045 186.5,136.5C 189.151,134.35 191.651,132.017 194,129.5C 195.185,131.559 196.352,131.726 197.5,130C 198.072,126.015 198.739,122.182 199.5,118.5 Z"/></g>
<g><path style="opacity:1" fill="#17094e" d="M 40.5,140.5 C 41.1174,140.611 41.6174,140.944 42,141.5C 42.4955,143.473 42.6621,145.473 42.5,147.5C 48.5978,148.8 54.5978,150.467 60.5,152.5C 64.3474,151.177 68.3474,150.177 72.5,149.5C 73.2888,147.512 74.4555,147.179 76,148.5C 77.6508,146.79 79.4842,145.456 81.5,144.5C 82.5983,145.601 82.765,146.934 82,148.5C 80.8687,147.396 80.0354,147.729 79.5,149.5C 80.6613,151.224 80.4947,152.89 79,154.5C 76.7746,155.395 74.2746,156.395 71.5,157.5C 71.5086,155.692 71.0086,154.025 70,152.5C 69.3848,154.116 68.3848,155.449 67,156.5C 56.3348,156.166 45.8348,156.166 35.5,156.5C 36.6843,155.312 36.6843,154.145 35.5,153C 36.3247,151.312 37.3247,151.145 38.5,152.5C 39.2304,150.659 39.8971,148.825 40.5,147C 39.232,144.837 39.232,142.67 40.5,140.5 Z"/></g>
<g><path style="opacity:1" fill="#03016d" d="M 101.5,134.5 C 101.755,136.967 102.755,138.967 104.5,140.5C 104.5,141.167 104.833,141.5 105.5,141.5C 105.5,141.833 105.5,142.167 105.5,142.5C 104.508,142.328 103.842,142.662 103.5,143.5C 102.577,142.697 101.577,142.53 100.5,143C 99.2192,145.403 97.3858,147.237 95,148.5C 94.5172,149.448 94.3505,150.448 94.5,151.5C 93.5,151.5 92.5,151.5 91.5,151.5C 91.5,153.833 91.5,156.167 91.5,158.5C 90.448,158.351 89.448,158.517 88.5,159C 88.8333,159.333 89.1667,159.667 89.5,160C 86.669,162.416 83.0024,163.582 78.5,163.5C 78.5,164.5 78.5,165.5 78.5,166.5C 77.1779,166.67 76.0113,166.337 75,165.5C 68.7421,166.667 62.4088,167.667 56,168.5C 51.7311,167.931 47.5644,167.931 43.5,168.5C 42.5615,170.91 42.5615,173.244 43.5,175.5C 36.372,173.607 30.2053,169.94 25,164.5C 23.0264,160.049 22.193,155.382 22.5,150.5C 22.3354,147.482 22.502,144.482 23,141.5C 24.0946,142.693 24.928,144.027 25.5,145.5C 26.8514,149.542 29.1848,152.875 32.5,155.5C 34.5303,158.182 37.197,159.849 40.5,160.5C 41.1408,161.482 41.8075,162.482 42.5,163.5C 46.1224,164.325 49.789,164.825 53.5,165C 54.0253,165.692 54.6919,166.192 55.5,166.5C 62.7301,164.895 70.0634,163.728 77.5,163C 80.5,161.333 82.8333,159 84.5,156C 89.7801,155.632 91.7801,152.798 90.5,147.5C 91.8734,147.657 93.2068,147.49 94.5,147C 93.572,146.612 92.9054,145.945 92.5,145C 95.4894,142.208 96.8227,138.708 96.5,134.5C 98.1667,134.5 99.8333,134.5 101.5,134.5 Z"/></g>
<g><path style="opacity:1" fill="#0d0556" d="M 158.5,112.5 C 158.453,115.568 157.953,118.568 157,121.5C 156.667,121.167 156.333,120.833 156,120.5C 155.706,125.721 154.039,130.387 151,134.5C 150.839,142.287 148.672,149.287 144.5,155.5C 143.167,155.5 141.833,155.5 140.5,155.5C 140.5,156.5 140.5,157.5 140.5,158.5C 134.794,158.171 129.128,158.505 123.5,159.5C 123.167,160.5 122.5,161.167 121.5,161.5C 117.885,159.154 114.218,157.821 110.5,157.5C 108.919,155.858 108.253,153.858 108.5,151.5C 109.117,151.389 109.617,151.056 110,150.5C 111.49,154.327 113.323,154.494 115.5,151C 114.709,149.899 114.709,149.066 115.5,148.5C 116.429,149.689 116.762,151.022 116.5,152.5C 122.585,152.94 128.585,152.94 134.5,152.5C 136.641,152.613 138.475,153.28 140,154.5C 140.483,153.552 140.649,152.552 140.5,151.5C 141.822,151.67 142.989,151.337 144,150.5C 144.495,148.527 144.662,146.527 144.5,144.5C 145.117,144.611 145.617,144.944 146,145.5C 146.49,144.207 146.657,142.873 146.5,141.5C 147.5,141.5 148.5,141.5 149.5,141.5C 149.682,139.409 149.348,137.409 148.5,135.5C 150.649,133.081 151.315,130.414 150.5,127.5C 152.267,124.963 153.767,122.297 155,119.5C 154.893,116.408 156.059,114.075 158.5,112.5 Z"/></g>
<g><path style="opacity:1" fill="#010084" d="M 103.5,143.5 C 101.528,147.8 99.1944,151.8 96.5,155.5C 94.7519,158.095 92.7519,160.595 90.5,163C 84.3856,166.646 78.0523,169.813 71.5,172.5C 72.7287,173.281 74.062,173.781 75.5,174C 74.5,174.333 73.5,174.667 72.5,175C 74.7078,175.191 76.7078,175.691 78.5,176.5C 66.8071,176.721 55.1404,176.388 43.5,175.5C 42.5615,173.244 42.5615,170.91 43.5,168.5C 47.5644,167.931 51.7311,167.931 56,168.5C 62.4088,167.667 68.7421,166.667 75,165.5C 76.0113,166.337 77.1779,166.67 78.5,166.5C 78.5,165.5 78.5,164.5 78.5,163.5C 83.0024,163.582 86.669,162.416 89.5,160C 89.1667,159.667 88.8333,159.333 88.5,159C 89.448,158.517 90.448,158.351 91.5,158.5C 91.5,156.167 91.5,153.833 91.5,151.5C 92.5,151.5 93.5,151.5 94.5,151.5C 94.3505,150.448 94.5172,149.448 95,148.5C 97.3858,147.237 99.2192,145.403 100.5,143C 101.577,142.53 102.577,142.697 103.5,143.5 Z"/></g>
<g><path style="opacity:1" fill="#110653" d="M 90.5,91.5 C 90.8333,91.5 91.1667,91.5 91.5,91.5C 91.7424,95.479 92.7424,99.1456 94.5,102.5C 94.5,103.833 94.5,105.167 94.5,106.5C 94.5786,112.728 95.2453,118.894 96.5,125C 95.7836,128.827 94.2836,132.327 92,135.5C 91.6667,138.5 91.3333,141.5 91,144.5C 90.3333,143.167 89.6667,143.167 89,144.5C 89.1623,151.165 85.9956,154.831 79.5,155.5C 79.5,156.5 79.5,157.5 79.5,158.5C 68.8035,158.639 58.4702,158.639 48.5,158.5C 47.3689,159.751 46.0356,160.751 44.5,161.5C 43.1508,161.154 41.8175,160.821 40.5,160.5C 37.197,159.849 34.5303,158.182 32.5,155.5C 33.609,155.557 34.609,155.89 35.5,156.5C 45.8348,156.166 56.3348,156.166 67,156.5C 68.3848,155.449 69.3848,154.116 70,152.5C 71.0086,154.025 71.5086,155.692 71.5,157.5C 74.2746,156.395 76.7746,155.395 79,154.5C 80.4947,152.89 80.6613,151.224 79.5,149.5C 80.0354,147.729 80.8687,147.396 82,148.5C 82.765,146.934 82.5983,145.601 81.5,144.5C 86.8969,139.856 90.5636,133.023 92.5,124C 90.122,118.631 90.122,113.297 92.5,108C 90.016,106.394 90.016,104.894 92.5,103.5C 91.4017,99.5767 90.735,95.5767 90.5,91.5 Z"/></g>
<g><path style="opacity:1" fill="#043061" d="M 199.5,141.5 C 199.5,149.167 199.5,156.833 199.5,164.5C 198.735,163.34 197.735,162.34 196.5,161.5C 193.321,163.272 190.154,164.938 187,166.5C 185.333,165.167 183.667,163.833 182,162.5C 181.601,162.728 181.435,163.062 181.5,163.5C 180.732,162.737 180.232,161.737 180,160.5C 179.78,162.973 178.614,164.64 176.5,165.5C 177.787,162.302 178.453,158.969 178.5,155.5C 178.5,154.5 178.5,153.5 178.5,152.5C 179.222,152.082 179.722,151.416 180,150.5C 180.333,152.833 180.667,155.167 181,157.5C 181.494,155.866 181.66,154.199 181.5,152.5C 182.458,152.047 183.292,151.381 184,150.5C 184.333,151.167 184.667,151.833 185,152.5C 186.351,151.039 187.851,149.706 189.5,148.5C 191.005,151.131 191.671,150.797 191.5,147.5C 195.933,147.722 198.6,145.722 199.5,141.5 Z"/></g>
<g><path style="opacity:1" fill="#050267" d="M 159.5,59.5 C 159.337,61.8568 159.503,64.1902 160,66.5C 162.018,64.6499 163.851,62.6499 165.5,60.5C 166.086,60.7093 166.586,61.0426 167,61.5C 167.719,65.1454 168.219,68.8121 168.5,72.5C 170.236,88.8686 167.236,104.202 159.5,118.5C 158.52,121.086 158.187,123.753 158.5,126.5C 156.406,128.559 154.572,130.893 153,133.5C 152.711,142.531 149.878,150.531 144.5,157.5C 134.365,163.033 123.699,164.366 112.5,161.5C 111.833,160.167 111.167,158.833 110.5,157.5C 114.218,157.821 117.885,159.154 121.5,161.5C 122.5,161.167 123.167,160.5 123.5,159.5C 129.128,158.505 134.794,158.171 140.5,158.5C 140.5,157.5 140.5,156.5 140.5,155.5C 141.833,155.5 143.167,155.5 144.5,155.5C 148.672,149.287 150.839,142.287 151,134.5C 154.039,130.387 155.706,125.721 156,120.5C 156.333,120.833 156.667,121.167 157,121.5C 157.953,118.568 158.453,115.568 158.5,112.5C 161.432,105.847 163.932,98.8465 166,91.5C 166.831,85.1405 166.664,78.8072 165.5,72.5C 164.833,71.8333 164.167,71.1667 163.5,70.5C 162.808,73.1451 161.808,75.6451 160.5,78C 158.956,79.1871 157.289,79.5205 155.5,79C 156.171,78.0138 156.171,76.8471 155.5,75.5C 155.833,72.8333 156.167,70.1667 156.5,67.5C 157.5,64.8333 158.5,62.1667 159.5,59.5 Z"/></g>
<g><path style="opacity:1" fill="#0001f4" d="M 105.5,142.5 C 106.304,145.579 107.304,148.579 108.5,151.5C 108.253,153.858 108.919,155.858 110.5,157.5C 111.167,158.833 111.833,160.167 112.5,161.5C 114.316,164.652 116.983,166.652 120.5,167.5C 127.56,171.133 134.893,171.467 142.5,168.5C 143.234,169.708 143.567,171.041 143.5,172.5C 148.43,172.803 153.263,172.469 158,171.5C 159.779,173.017 159.279,173.851 156.5,174C 159.352,174.913 161.519,174.08 163,171.5C 163.308,172.308 163.808,172.975 164.5,173.5C 164.998,172.397 165.331,171.397 165.5,170.5C 166.518,171.193 167.518,171.859 168.5,172.5C 165.943,174.607 162.943,175.941 159.5,176.5C 145.167,176.5 130.833,176.5 116.5,176.5C 107.009,175.67 97.342,175.17 87.5,175C 94.1667,174.333 94.1667,173.667 87.5,173C 89.2556,172.798 90.9223,172.298 92.5,171.5C 92.1667,170.833 91.8333,170.167 91.5,169.5C 92.4733,167.36 93.9733,165.693 96,164.5C 96.498,161.518 96.6646,158.518 96.5,155.5C 99.1944,151.8 101.528,147.8 103.5,143.5C 103.842,142.662 104.508,142.328 105.5,142.5 Z"/></g>
<g><path style="opacity:1" fill="#07025f" d="M 94.5,106.5 C 95.5237,110.591 96.8571,114.591 98.5,118.5C 99.1817,123.893 100.182,129.227 101.5,134.5C 99.8333,134.5 98.1667,134.5 96.5,134.5C 96.8227,138.708 95.4894,142.208 92.5,145C 92.9054,145.945 93.572,146.612 94.5,147C 93.2068,147.49 91.8734,147.657 90.5,147.5C 91.7801,152.798 89.7801,155.632 84.5,156C 82.8333,159 80.5,161.333 77.5,163C 70.0634,163.728 62.7301,164.895 55.5,166.5C 54.6919,166.192 54.0253,165.692 53.5,165C 49.789,164.825 46.1224,164.325 42.5,163.5C 41.8075,162.482 41.1408,161.482 40.5,160.5C 41.8175,160.821 43.1508,161.154 44.5,161.5C 46.0356,160.751 47.3689,159.751 48.5,158.5C 58.4702,158.639 68.8035,158.639 79.5,158.5C 79.5,157.5 79.5,156.5 79.5,155.5C 85.9956,154.831 89.1623,151.165 89,144.5C 89.6667,143.167 90.3333,143.167 91,144.5C 91.3333,141.5 91.6667,138.5 92,135.5C 94.2836,132.327 95.7836,128.827 96.5,125C 95.2453,118.894 94.5786,112.728 94.5,106.5 Z"/></g>
<g><path style="opacity:1" fill="#2c245b" d="M 15.5,139.5 C 15.1765,146.022 15.5098,152.355 16.5,158.5C 16.5,159.5 16.5,160.5 16.5,161.5C 15.7321,162.263 15.2321,163.263 15,164.5C 14.3261,163.422 13.3261,162.755 12,162.5C 9.03605,164.134 6.36938,166.134 4,168.5C 3.73984,170.618 2.73984,172.284 1,173.5C 0.502577,176.146 0.33591,178.813 0.5,181.5C 0.166667,181.5 -0.166667,181.5 -0.5,181.5C -0.5,171.5 -0.5,161.5 -0.5,151.5C 4.8458,149.191 9.51247,146.025 13.5,142C 12.3909,140.187 13.0576,139.354 15.5,139.5 Z"/></g>
<g><path style="opacity:1" fill="#000078" d="M 158.5,126.5 C 155.288,139.211 151.121,151.544 146,163.5C 142.06,165.15 137.893,165.983 133.5,166C 134.5,166.333 135.5,166.667 136.5,167C 133.167,167.667 129.833,167.667 126.5,167C 126.833,166.667 127.167,166.333 127.5,166C 124.829,165.167 122.496,165.667 120.5,167.5C 116.983,166.652 114.316,164.652 112.5,161.5C 123.699,164.366 134.365,163.033 144.5,157.5C 149.878,150.531 152.711,142.531 153,133.5C 154.572,130.893 156.406,128.559 158.5,126.5 Z"/></g>
<g><path style="opacity:1" fill="#042e58" d="M 16.5,161.5 C 17.4767,163.821 18.4767,166.154 19.5,168.5C 17.6467,172.103 18.6467,174.603 22.5,176C 19.4281,177.724 16.5948,179.89 14,182.5C 13.3333,181.833 12.6667,181.167 12,180.5C 11.2716,183.23 11.4383,185.897 12.5,188.5C 10.9363,190.251 8.93629,191.251 6.5,191.5C 3.29157,189.013 1.29157,185.679 0.5,181.5C 0.33591,178.813 0.502577,176.146 1,173.5C 2.73984,172.284 3.73984,170.618 4,168.5C 6.36938,166.134 9.03605,164.134 12,162.5C 13.3261,162.755 14.3261,163.422 15,164.5C 15.2321,163.263 15.7321,162.263 16.5,161.5 Z"/></g>
<g><path style="opacity:1" fill="#00008e" d="M 168.5,72.5 C 169.825,76.4451 170.492,80.7784 170.5,85.5C 169.515,97.4694 168.015,109.469 166,121.5C 164.964,124.295 163.631,126.962 162,129.5C 160.022,139.418 156.522,148.752 151.5,157.5C 151.709,158.086 152.043,158.586 152.5,159C 150.833,160.333 149.167,161.667 147.5,163C 148.416,163.278 149.082,163.778 149.5,164.5C 147.465,166.195 145.132,167.528 142.5,168.5C 134.893,171.467 127.56,171.133 120.5,167.5C 122.496,165.667 124.829,165.167 127.5,166C 127.167,166.333 126.833,166.667 126.5,167C 129.833,167.667 133.167,167.667 136.5,167C 135.5,166.667 134.5,166.333 133.5,166C 137.893,165.983 142.06,165.15 146,163.5C 151.121,151.544 155.288,139.211 158.5,126.5C 158.187,123.753 158.52,121.086 159.5,118.5C 167.236,104.202 170.236,88.8686 168.5,72.5 Z"/></g>
<g><path style="opacity:1" fill="#0101ca" d="M 96.5,155.5 C 96.6646,158.518 96.498,161.518 96,164.5C 93.9733,165.693 92.4733,167.36 91.5,169.5C 91.8333,170.167 92.1667,170.833 92.5,171.5C 90.9223,172.298 89.2556,172.798 87.5,173C 94.1667,173.667 94.1667,174.333 87.5,175C 97.342,175.17 107.009,175.67 116.5,176.5C 103.833,176.5 91.1667,176.5 78.5,176.5C 76.7078,175.691 74.7078,175.191 72.5,175C 73.5,174.667 74.5,174.333 75.5,174C 74.062,173.781 72.7287,173.281 71.5,172.5C 78.0523,169.813 84.3856,166.646 90.5,163C 92.7519,160.595 94.7519,158.095 96.5,155.5 Z"/></g>
<g><path style="opacity:1" fill="#014464" d="M 199.5,164.5 C 199.5,169.833 199.5,175.167 199.5,180.5C 197.36,182.7 195.86,185.367 195,188.5C 194.241,190.063 193.074,191.063 191.5,191.5C 192.96,187.669 193.96,183.669 194.5,179.5C 192.508,179.328 190.842,179.995 189.5,181.5C 187.894,180.923 186.228,180.59 184.5,180.5C 180.604,182.518 176.438,183.851 172,184.5C 170.85,183.576 169.85,183.576 169,184.5C 168.689,183.258 169.189,182.258 170.5,181.5C 170.03,180.537 169.363,180.537 168.5,181.5C 168.5,181.167 168.5,180.833 168.5,180.5C 170.076,179.717 171.409,178.55 172.5,177C 172.167,176.667 171.833,176.333 171.5,176C 179.154,175.811 182.487,171.645 181.5,163.5C 181.435,163.062 181.601,162.728 182,162.5C 183.667,163.833 185.333,165.167 187,166.5C 190.154,164.938 193.321,163.272 196.5,161.5C 197.735,162.34 198.735,163.34 199.5,164.5 Z"/></g>
<g><path style="opacity:1" fill="#022858" d="M 19.5,168.5 C 22.5,172.833 26.1667,176.5 30.5,179.5C 27.8875,180.095 27.8875,180.929 30.5,182C 28.5798,187.197 27.9132,192.697 28.5,198.5C 23.7697,198.717 19.1031,198.383 14.5,197.5C 11.1434,196.375 8.47676,194.375 6.5,191.5C 8.93629,191.251 10.9363,190.251 12.5,188.5C 11.4383,185.897 11.2716,183.23 12,180.5C 12.6667,181.167 13.3333,181.833 14,182.5C 16.5948,179.89 19.4281,177.724 22.5,176C 18.6467,174.603 17.6467,172.103 19.5,168.5 Z"/></g>
<g><path style="opacity:1" fill="#170d41" d="M 22.5,150.5 C 22.193,155.382 23.0264,160.049 25,164.5C 30.2053,169.94 36.372,173.607 43.5,175.5C 55.1404,176.388 66.8071,176.721 78.5,176.5C 91.1667,176.5 103.833,176.5 116.5,176.5C 130.833,176.5 145.167,176.5 159.5,176.5C 156.375,177.1 156.042,178.267 158.5,180C 157.584,180.278 156.918,180.778 156.5,181.5C 154.833,181.5 153.167,181.5 151.5,181.5C 141.833,181.5 132.167,181.5 122.5,181.5C 110.833,181.5 99.1667,181.5 87.5,181.5C 71.1601,181.794 54.8267,181.96 38.5,182C 35.846,181.059 33.1794,180.226 30.5,179.5C 26.1667,176.5 22.5,172.833 19.5,168.5C 18.4767,166.154 17.4767,163.821 16.5,161.5C 16.5,160.5 16.5,159.5 16.5,158.5C 15.8563,151.876 16.6897,145.543 19,139.5C 19.658,141.108 19.158,142.275 17.5,143C 19.4426,145.486 21.1093,147.986 22.5,150.5 Z"/></g>
<g><path style="opacity:1" fill="#0b294c" d="M 181.5,163.5 C 182.487,171.645 179.154,175.811 171.5,176C 171.833,176.333 172.167,176.667 172.5,177C 171.409,178.55 170.076,179.717 168.5,180.5C 164.452,180.395 160.452,180.728 156.5,181.5C 156.918,180.778 157.584,180.278 158.5,180C 156.042,178.267 156.375,177.1 159.5,176.5C 162.943,175.941 165.943,174.607 168.5,172.5C 171.8,170.911 174.467,168.578 176.5,165.5C 178.614,164.64 179.78,162.973 180,160.5C 180.232,161.737 180.732,162.737 181.5,163.5 Z"/></g>
<g><path style="opacity:1" fill="#014d66" d="M 191.5,191.5 C 191.586,192.496 191.252,193.329 190.5,194C 187.681,195.75 185.015,197.583 182.5,199.5C 158.833,199.5 135.167,199.5 111.5,199.5C 111.325,192.824 112.825,192.157 116,197.5C 120.086,195.01 124.252,192.51 128.5,190C 133.264,190.209 137.931,190.375 142.5,190.5C 142.291,188.286 143.124,186.619 145,185.5C 148.197,184.998 151.197,183.998 154,182.5C 154.804,183.804 155.971,184.471 157.5,184.5C 158.296,182.941 160.129,181.941 163,181.5C 164.887,182.755 166.72,182.755 168.5,181.5C 169.363,180.537 170.03,180.537 170.5,181.5C 169.189,182.258 168.689,183.258 169,184.5C 169.85,183.576 170.85,183.576 172,184.5C 176.438,183.851 180.604,182.518 184.5,180.5C 186.228,180.59 187.894,180.923 189.5,181.5C 190.842,179.995 192.508,179.328 194.5,179.5C 193.96,183.669 192.96,187.669 191.5,191.5 Z"/></g>
<g><path style="opacity:1" fill="#02235c" d="M 30.5,179.5 C 33.1794,180.226 35.846,181.059 38.5,182C 54.8267,181.96 71.1601,181.794 87.5,181.5C 83.7217,182.705 79.8883,184.038 76,185.5C 74.9505,184.483 73.7839,184.316 72.5,185C 72.8472,186.569 73.0139,188.402 73,190.5C 68.4044,194.004 63.571,197.004 58.5,199.5C 44.1667,199.5 29.8333,199.5 15.5,199.5C 15.1667,198.833 14.8333,198.167 14.5,197.5C 19.1031,198.383 23.7697,198.717 28.5,198.5C 27.9132,192.697 28.5798,187.197 30.5,182C 27.8875,180.929 27.8875,180.095 30.5,179.5 Z"/></g>
<g><path style="opacity:1" fill="#014160" d="M 168.5,180.5 C 168.5,180.833 168.5,181.167 168.5,181.5C 166.72,182.755 164.887,182.755 163,181.5C 160.129,181.941 158.296,182.941 157.5,184.5C 155.971,184.471 154.804,183.804 154,182.5C 151.197,183.998 148.197,184.998 145,185.5C 143.124,186.619 142.291,188.286 142.5,190.5C 137.931,190.375 133.264,190.209 128.5,190C 124.252,192.51 120.086,195.01 116,197.5C 112.825,192.157 111.325,192.824 111.5,199.5C 108.167,199.5 104.833,199.5 101.5,199.5C 100.602,198.842 99.6016,198.176 98.5,197.5C 104.131,195.447 109.798,193.78 115.5,192.5C 115.662,190.176 116.828,188.509 119,187.5C 119.333,187.833 119.667,188.167 120,188.5C 121.113,187.24 121.28,186.073 120.5,185C 122.5,184.667 124.5,184.333 126.5,184C 126.167,183.667 125.833,183.333 125.5,183C 134.343,182.83 143.01,182.33 151.5,181.5C 153.167,181.5 154.833,181.5 156.5,181.5C 160.452,180.728 164.452,180.395 168.5,180.5 Z"/></g>
<g><path style="opacity:1" fill="#01395c" d="M 122.5,181.5 C 132.167,181.5 141.833,181.5 151.5,181.5C 143.01,182.33 134.343,182.83 125.5,183C 125.833,183.333 126.167,183.667 126.5,184C 124.5,184.333 122.5,184.667 120.5,185C 121.28,186.073 121.113,187.24 120,188.5C 119.667,188.167 119.333,187.833 119,187.5C 116.828,188.509 115.662,190.176 115.5,192.5C 109.798,193.78 104.131,195.447 98.5,197.5C 99.6016,198.176 100.602,198.842 101.5,199.5C 96.5,199.5 91.5,199.5 86.5,199.5C 85.3915,198.71 84.0581,198.21 82.5,198C 84.8002,195.712 87.4668,194.045 90.5,193C 88.9984,192.417 87.6651,191.584 86.5,190.5C 87.9806,190.635 89.6473,190.301 91.5,189.5C 92.731,188.349 92.731,187.183 91.5,186C 92.9506,186.263 94.2839,186.096 95.5,185.5C 94.9747,184.808 94.3081,184.308 93.5,184C 103.269,182.912 112.936,182.079 122.5,181.5 Z"/></g>
<g><path style="opacity:1" fill="#012e5e" d="M 87.5,181.5 C 99.1667,181.5 110.833,181.5 122.5,181.5C 112.936,182.079 103.269,182.912 93.5,184C 94.3081,184.308 94.9747,184.808 95.5,185.5C 94.2839,186.096 92.9506,186.263 91.5,186C 92.731,187.183 92.731,188.349 91.5,189.5C 89.6473,190.301 87.9806,190.635 86.5,190.5C 87.6651,191.584 88.9984,192.417 90.5,193C 87.4668,194.045 84.8002,195.712 82.5,198C 84.0581,198.21 85.3915,198.71 86.5,199.5C 77.1667,199.5 67.8333,199.5 58.5,199.5C 63.571,197.004 68.4044,194.004 73,190.5C 73.0139,188.402 72.8472,186.569 72.5,185C 73.7839,184.316 74.9505,184.483 76,185.5C 79.8883,184.038 83.7217,182.705 87.5,181.5 Z"/></g>
</svg>
